<?xml version="1.0" encoding="UTF-8" standalone="no"?>
<!-- Created with Inkscape (http://www.inkscape.org/) -->

<svg
   xmlns:osb="http://www.openswatchbook.org/uri/2009/osb"
   xmlns:dc="http://purl.org/dc/elements/1.1/"
   xmlns:cc="http://creativecommons.org/ns#"
   xmlns:rdf="http://www.w3.org/1999/02/22-rdf-syntax-ns#"
   xmlns:svg="http://www.w3.org/2000/svg"
   xmlns="http://www.w3.org/2000/svg"
   xmlns:sodipodi="http://sodipodi.sourceforge.net/DTD/sodipodi-0.dtd"
   xmlns:inkscape="http://www.inkscape.org/namespaces/inkscape"
   width="640"
   height="400"
   id="svg2"
   version="1.1"
   inkscape:version="0.48.3.1 r9886"
   sodipodi:docname="center_of_the_universe.svg">
  <defs
     id="defs4">
    <inkscape:path-effect
       effect="spiro"
       id="path-effect4787"
       is_visible="true" />
    <inkscape:path-effect
       effect="spiro"
       id="path-effect4783"
       is_visible="true" />
    <inkscape:path-effect
       effect="spiro"
       id="path-effect4779"
       is_visible="true" />
    <inkscape:path-effect
       effect="spiro"
       id="path-effect4775"
       is_visible="true" />
    <inkscape:path-effect
       effect="spiro"
       id="path-effect4771"
       is_visible="true" />
    <inkscape:path-effect
       effect="spiro"
       id="path-effect4767"
       is_visible="true" />
    <inkscape:path-effect
       effect="spiro"
       id="path-effect4763"
       is_visible="true" />
    <inkscape:path-effect
       effect="spiro"
       id="path-effect4759"
       is_visible="true" />
    <inkscape:path-effect
       effect="spiro"
       id="path-effect4755"
       is_visible="true" />
    <inkscape:path-effect
       effect="spiro"
       id="path-effect4751"
       is_visible="true" />
    <inkscape:path-effect
       effect="spiro"
       id="path-effect4747"
       is_visible="true" />
    <inkscape:path-effect
       effect="spiro"
       id="path-effect4574"
       is_visible="true" />
    <linearGradient
       id="linearGradient3784"
       osb:paint="solid">
      <stop
         style="stop-color:#000000;stop-opacity:1;"
         offset="0"
         id="stop3786" />
    </linearGradient>
  </defs>
  <sodipodi:namedview
     id="base"
     pagecolor="#ffffff"
     bordercolor="#666666"
     borderopacity="1.0"
     inkscape:pageopacity="0.0"
     inkscape:pageshadow="2"
     inkscape:zoom="1"
     inkscape:cx="322.94089"
     inkscape:cy="206.12775"
     inkscape:document-units="px"
     inkscape:current-layer="layer1"
     showgrid="true"
     objecttolerance="10"
     gridtolerance="10000"
     inkscape:window-width="1024"
     inkscape:window-height="744"
     inkscape:window-x="0"
     inkscape:window-y="24"
     inkscape:window-maximized="1">
    <inkscape:grid
       type="xygrid"
       id="grid2985"
       empspacing="5"
       visible="true"
       enabled="false"
       snapvisiblegridlinesonly="false"
       spacingx="4.948px"
       spacingy="5px" />
  </sodipodi:namedview>
  <metadata
     id="metadata7">
    <rdf:RDF>
      <cc:Work
         rdf:about="">
        <dc:format>image/svg+xml</dc:format>
        <dc:type
           rdf:resource="http://purl.org/dc/dcmitype/StillImage" />
      </cc:Work>
    </rdf:RDF>
  </metadata>
  <g
     inkscape:label="Layer 1"
     inkscape:groupmode="layer"
     id="layer1"
     transform="translate(0,-652.36218)">
    <rect
       style="fill:#ffffff;fill-opacity:1;fill-rule:evenodd;stroke:#000000;stroke-width:3;stroke-linecap:butt;stroke-linejoin:round;stroke-miterlimit:4;stroke-opacity:1;stroke-dasharray:none"
       id="rect3005"
       width="118.752"
       height="145"
       x="351.30801"
       y="850.36218" />
    <rect
       style="fill:#ffffff;fill-rule:evenodd;stroke:#000000;stroke-width:3;stroke-linecap:butt;stroke-linejoin:round;stroke-opacity:1;fill-opacity:1;stroke-miterlimit:4;stroke-dasharray:none"
       id="rect3009"
       width="148.44"
       height="115"
       x="484.90399"
       y="782.36218" />
    <path
       style="fill:none;stroke:#000000;stroke-width:2;stroke-linecap:butt;stroke-linejoin:miter;stroke-opacity:1;stroke-miterlimit:4;stroke-dasharray:none"
       d="m 306.776,0 0,400"
       id="path3804"
       inkscape:connector-curvature="0"
       transform="translate(0,652.36218)" />
    <path
       style="fill:none;stroke:#000000;stroke-width:2;stroke-linecap:butt;stroke-linejoin:miter;stroke-miterlimit:4;stroke-opacity:1;stroke-dasharray:none"
       d="m 494.8,952.36218 44.532,-35"
       id="path3932"
       inkscape:connector-curvature="0" />
    <path
       style="fill:none;stroke:#000000;stroke-width:2;stroke-linecap:butt;stroke-linejoin:miter;stroke-miterlimit:4;stroke-opacity:1;stroke-dasharray:none"
       d="m 497.74577,958.35425 46.51615,-35.97399"
       id="path3938"
       inkscape:connector-curvature="0" />
    <path
       style="fill:none;stroke:#000000;stroke-width:2;stroke-linecap:butt;stroke-linejoin:miter;stroke-miterlimit:4;stroke-opacity:1;stroke-dasharray:none"
       d="m 495.4104,939.36218 -3.5584,20 17.792,0"
       id="path3944"
       inkscape:connector-curvature="0" />
    <path
       style="fill:none;stroke:#000000;stroke-width:2;stroke-linecap:butt;stroke-linejoin:miter;stroke-miterlimit:4;stroke-opacity:1;stroke-dasharray:none"
       d="m 522.28464,919.66952 23.16195,-3.64216 0,19.12134"
       id="path3946"
       inkscape:connector-curvature="0" />
    <g
       id="g4079"
       transform="translate(1.0101525,13.131983)" />
    <g
       id="g4322">
      <g
         id="g4316">
        <rect
           style="fill:#ffffff;fill-opacity:1;fill-rule:evenodd;stroke:#000000;stroke-width:3;stroke-linecap:butt;stroke-linejoin:round;stroke-miterlimit:4;stroke-opacity:1;stroke-dasharray:none"
           id="rect2987"
           width="133.59599"
           height="165"
           x="9.8959999"
           y="857.36218" />
      </g>
      <g
         id="g4319">
        <rect
           style="fill:#ffffff;fill-opacity:1;fill-rule:evenodd;stroke:#000000;stroke-width:3.22715402;stroke-linecap:butt;stroke-linejoin:round;stroke-miterlimit:4;stroke-opacity:1;stroke-dasharray:none"
           id="rect3003"
           width="143.14185"
           height="165"
           x="157.3541"
           y="857.36218" />
      </g>
      <rect
         style="fill:#ffffff;fill-opacity:1;fill-rule:evenodd;stroke:#000000;stroke-width:2.88889265;stroke-linecap:butt;stroke-linejoin:round;stroke-miterlimit:4;stroke-opacity:1;stroke-dasharray:none"
         id="rect2997"
         width="178.12801"
         height="148.36801"
         x="54.427994"
         y="667.36218" />
      <text
         sodipodi:linespacing="125%"
         id="text3830"
         y="692.95093"
         x="94.812202"
         style="font-size:22px;font-style:normal;font-variant:normal;font-weight:normal;font-stretch:normal;text-align:start;line-height:125%;letter-spacing:0px;word-spacing:0px;writing-mode:lr-tb;text-anchor:start;fill:#000000;fill-opacity:1;stroke:none;font-family:Liberation Sans;-inkscape-font-specification:Liberation Sans"
         xml:space="preserve"><tspan
           y="692.95093"
           x="94.812202"
           id="tspan3832"
           sodipodi:role="line">Maðurinn</tspan></text>
      <g
         transform="translate(-6.0609152,-12.121831)"
         id="g4035">
        <path
           sodipodi:type="arc"
           style="fill:#ffffff;fill-opacity:1;stroke:#000000;stroke-width:2;stroke-linejoin:round;stroke-miterlimit:4;stroke-opacity:1;stroke-dasharray:none"
           id="path3834"
           sodipodi:cx="148.44"
           sodipodi:cy="85"
           sodipodi:rx="19.792"
           sodipodi:ry="20"
           d="m 168.232,85 c 0,11.045695 -8.86118,20 -19.792,20 -10.93082,0 -19.792,-8.954305 -19.792,-20 0,-11.045695 8.86118,-20 19.792,-20 10.93082,0 19.792,8.954305 19.792,20 z"
           transform="translate(-8,646.36218)" />
        <path
           style="fill:none;stroke:#000000;stroke-width:1px;stroke-linecap:butt;stroke-linejoin:miter;stroke-opacity:1"
           d="m 202.868,732.36218 c 0,0 -64.324,90 -64.324,20 l 0,70"
           id="path3836"
           inkscape:connector-curvature="0" />
        <path
           style="fill:none;stroke:#000000;stroke-width:0.84162402px;stroke-linecap:butt;stroke-linejoin:miter;stroke-opacity:1"
           d="m 138.55803,762.36218 c 0,0 -85.673423,-4.09091 -25.70203,45"
           id="path3838"
           inkscape:connector-curvature="0" />
        <path
           sodipodi:type="arc"
           style="fill:#ffffff;fill-opacity:1;stroke:#000000;stroke-width:2;stroke-linejoin:round;stroke-miterlimit:4;stroke-opacity:1;stroke-dasharray:none"
           id="path3840"
           sodipodi:cx="148.44"
           sodipodi:cy="72.5"
           sodipodi:rx="4.948"
           sodipodi:ry="2.5"
           d="m 153.388,72.5 c 0,1.380712 -2.21529,2.5 -4.948,2.5 -2.7327,0 -4.948,-1.119288 -4.948,-2.5 0,-1.380712 2.2153,-2.5 4.948,-2.5 2.73271,0 4.948,1.119288 4.948,2.5 z"
           transform="translate(0,652.36218)" />
        <path
           style="fill:none;stroke:#000000;stroke-width:1px;stroke-linecap:butt;stroke-linejoin:miter;stroke-opacity:1"
           d="m 143.492,742.36218 c 14.844,0 0,5 14.844,0"
           id="path3842"
           inkscape:connector-curvature="0" />
        <path
           style="fill:none;stroke:#000000;stroke-width:1px;stroke-linecap:butt;stroke-linejoin:miter;stroke-opacity:1"
           d="m 138.544,712.36218 c -0.72447,0.53297 -1.64044,2.32337 -2.17341,1.5989 -0.53296,-0.72447 3.0728,-1.5989 2.17341,-1.5989 -1.49606,0 -2.76363,1.1595 -4.19371,1.5989 -0.64374,0.19779 -1.41797,-0.30117 -2.02031,0 -0.42591,0.21296 -0.58423,0.79719 -1.01015,1.01015 -0.60234,0.30117 -1.54411,-0.47619 -2.0203,0 -0.47619,0.47619 0.47619,1.54411 0,2.02031 -0.2381,0.23809 -0.77206,-0.2381 -1.01016,0 -0.23809,0.23809 0.2381,0.77205 0,1.01015 -0.23809,0.23809 -0.77205,-0.2381 -1.01015,0 -0.24185,0.24185 0.22963,4.04061 0,4.04061 -0.33672,0 0,-0.67344 0,-1.01015 0,-2.36899 -0.23809,0.47619 1.01015,-2.02031 0.15059,-0.30117 -0.23809,-0.77206 0,-1.01015 0.2381,-0.2381 0.77206,0.23809 1.01016,0 0.23809,-0.2381 -0.2381,-0.77206 0,-1.01015 0.47619,-0.4762 1.54411,0.47619 2.0203,0 0.2381,-0.2381 -0.23809,-0.77206 0,-1.01016 0.22074,-0.22074 2.69635,0.23237 3.03046,0 1.51591,-1.05429 2.54216,-4.44498 4.19371,-3.6192 1.52475,0.76237 -1.33538,3.14484 -2.17341,4.62936 -0.23409,0.41467 -0.58423,0.79719 -1.01015,1.01015 -0.30117,0.15058 -0.77206,-0.2381 -1.01015,0 -0.2381,0.23809 0.23809,0.77206 0,1.01015 -0.2381,0.2381 -0.77206,-0.23809 -1.01015,0 -0.47619,0.47619 0.47619,1.54412 0,2.02031 -0.2381,0.23809 -0.77206,-0.2381 -1.01016,0 -0.47619,0.47619 0.47619,1.54411 0,2.0203 -0.23809,0.2381 -0.70898,-0.15058 -1.01015,0 -0.42592,0.21296 -0.53396,1.01015 -1.01015,1.01015 -0.33672,0 0,-0.67343 0,-1.01015 0,-1.01015 0,-2.0203 0,-3.03046 0,-2.69374 -0.33672,0.33672 1.01015,-1.01015 0.2381,-0.23809 -0.23809,-0.77206 0,-1.01015 0.2381,-0.2381 0.70898,0.15058 1.01015,0 0.42592,-0.21296 0.58424,-0.7972 1.01016,-1.01015 0.30117,-0.15059 0.77205,0.23809 1.01015,0 0.23809,-0.2381 0,-0.67344 0,-1.01016 1.3979,-1.2064 2.44197,-3.03529 4.19371,-3.6192 1.55993,-0.51998 3.26146,0.42569 4.89766,0.58875 0.33506,0.0334 1.01015,-0.33672 1.01015,0 0,0.33671 -0.67509,0.0334 -1.01015,0 -1.6362,-0.16306 -3.52951,-1.50085 -4.89766,-0.58875 -1.32387,0.88258 -0.59109,3.1447 -1.16325,4.62936 -0.17125,0.44433 -0.7972,0.58423 -1.01016,1.01015 -0.15058,0.30117 0.2381,0.77206 0,1.01015 -0.23809,0.2381 -0.77205,-0.23809 -1.01015,0 -0.50508,0.50508 0.50508,2.52538 0,3.03046 -0.23809,0.23809 -0.77206,-0.2381 -1.01015,0 -0.55551,0.55551 0.97901,4.04061 -1.01015,4.04061 -0.33672,0 0,-0.67344 0,-1.01015 0,-0.33672 0,-0.67344 0,-1.01016 0,-0.45493 -0.15372,-2.72303 0,-3.03045 0.21295,-0.42592 0.79719,-0.58424 1.01015,-1.01016 0.15058,-0.30117 -0.2381,-0.77205 0,-1.01015 0.23809,-0.23809 0.77206,0.2381 1.01015,0 0.2381,-0.23809 -0.23809,-0.77206 0,-1.01015 0.2381,-0.2381 0.77206,0.23809 1.01015,0 0.2381,-0.2381 -0.23809,-0.77206 0,-1.01015 0.47619,-0.4762 1.85619,0.65313 2.02031,0 0.37626,-1.49742 -1.05253,-3.66485 0.1531,-4.62936 1.28399,-1.02719 3.26146,0.42569 4.89766,0.58875 0.33506,0.0334 1.01015,-0.33672 1.01015,0 0,0.33671 -0.67509,0.0334 -1.01015,0 -1.6362,-0.16306 -3.73496,-1.75145 -4.89766,-0.58875 -5.22511,5.22511 2.17519,3.00323 0.85705,5.63951 -0.21296,0.42592 -0.79719,0.58423 -1.01015,1.01015 -0.15059,0.30117 0.23809,0.77206 0,1.01015 -0.2381,0.2381 -0.77206,-0.23809 -1.01015,0 -0.2381,0.2381 0.23809,0.77206 0,1.01016 -0.2381,0.23809 -0.77206,-0.2381 -1.01016,0 -2.09004,2.09004 3.19386,-0.0817 -1.01015,2.0203 -0.60234,0.30117 -1.54411,-0.47619 -2.0203,0 -0.2381,0.2381 0,0.67344 0,1.01015 -0.33672,0 -0.70899,-0.15058 -1.01016,0 -4.20401,2.10201 1.07989,-0.0697 -1.01015,2.02031 -2.69374,0 0.33672,-0.33672 -1.01015,1.01015 -0.2381,0.2381 -0.77206,-0.23809 -1.01015,0 -0.47619,0.47619 0.47619,1.54412 0,2.02031 -0.2381,0.23809 -0.77206,-0.2381 -1.01016,0 -0.23809,0.23809 0.2381,0.77205 0,1.01015 -0.23809,0.23809 -0.77205,-0.2381 -1.01015,0 -0.23809,0.23809 0.2381,0.77206 0,1.01015 -0.23809,0.2381 -0.77206,0.2381 -1.01015,0 -0.0325,-0.0325 0,-2.78547 0,-3.03046 0,-0.24004 -0.1132,-3.8142 0,-4.04061 0.21296,-0.42591 0.79719,-0.58423 1.01015,-1.01015 0.15059,-0.30117 -0.15058,-0.70898 0,-1.01015 0.1341,-0.26821 2.76225,-2.89636 3.03046,-3.03046 0.30117,-0.15058 0.77206,0.2381 1.01015,0 1.34687,-1.34687 -1.68359,-1.01015 1.01015,-1.01015 2.79731,0 -0.777,-1.01015 2.02031,-1.01015 0.33672,0 1.01015,-0.33672 1.01015,0 0,0.11884 -2.8819,-0.14856 -3.03046,0 -0.23809,0.23809 0.15059,0.70898 0,1.01015 -0.13728,0.27456 -1.88302,1.74574 -2.0203,2.0203 -0.15059,0.30117 0.15058,0.70899 0,1.01016 -0.21296,0.42591 -0.7972,0.58423 -1.01015,1.01015 -0.31746,0.6349 0.31745,3.40571 0,4.04061 -0.21296,0.42592 -0.7972,0.58423 -1.01016,1.01015 -0.15058,0.30117 0.2381,0.77206 0,1.01015 -0.23809,0.2381 -0.77205,-0.23809 -1.01015,0 -0.23809,0.2381 0.2381,0.77206 0,1.01016 -0.23809,0.23809 -0.77206,-0.2381 -1.01015,0 -0.2381,0.23809 0.23809,0.77205 0,1.01015 -0.10102,0.10101 -2.92944,0.10101 -3.03046,0 -0.23809,-0.2381 0,-0.67344 0,-1.01015 0,-1.68359 0,-3.36718 0,-5.05077 0,-0.33671 -0.23809,-0.77205 0,-1.01015 0.2381,-0.23809 0.70898,0.15059 1.01015,0 1.3574,-0.6787 0.66291,-1.34161 2.02031,-2.0203 0.30117,-0.15059 0.77206,0.23809 1.01015,0 0.2381,-0.2381 -0.23809,-0.77206 0,-1.01016 0.2381,-0.23809 0.77206,0.2381 1.01015,0 0.2381,-0.23809 -0.23809,-0.77205 0,-1.01015 0.50508,-0.50508 2.52538,0.50508 3.03046,0 0.2381,-0.23809 0,-0.67343 0,-1.01015 0.75872,-0.21317 1.51745,-0.42634 2.27617,-0.63951"
           id="path3844"
           inkscape:connector-curvature="0" />
      </g>
      <path
         inkscape:connector-curvature="0"
         id="path3905"
         d="m 247.4,752.36218 14.844,85 9.896,-25"
         style="fill:none;stroke:#000000;stroke-width:2;stroke-linecap:butt;stroke-linejoin:miter;stroke-miterlimit:4;stroke-opacity:1;stroke-dasharray:none" />
      <path
         inkscape:connector-curvature="0"
         id="path3907"
         d="m 262.244,837.36218 -19.792,-15"
         style="fill:none;stroke:#000000;stroke-width:2;stroke-linecap:butt;stroke-linejoin:miter;stroke-miterlimit:4;stroke-opacity:1;stroke-dasharray:none" />
      <path
         inkscape:connector-curvature="0"
         id="path3913"
         d="m 44.532,742.36218 -14.844,95 14.844,-25"
         style="fill:none;stroke:#000000;stroke-width:2;stroke-linecap:butt;stroke-linejoin:miter;stroke-miterlimit:4;stroke-opacity:1;stroke-dasharray:none" />
      <path
         id="path3915"
         d="m 19.78125,812.36218 9.90625,25 -9.90625,-25 z"
         style="fill:none;stroke:#000000;stroke-width:2;stroke-linecap:butt;stroke-linejoin:miter;stroke-miterlimit:4;stroke-opacity:1;stroke-dasharray:none"
         inkscape:connector-curvature="0" />
      <g
         id="g4268">
        <text
           xml:space="preserve"
           style="font-size:18.85270882px;font-style:normal;font-variant:normal;font-weight:normal;font-stretch:normal;text-align:center;line-height:125%;letter-spacing:0px;word-spacing:0px;writing-mode:lr-tb;text-anchor:middle;fill:#000000;fill-opacity:1;stroke:none;font-family:Liberation Sans;-inkscape-font-specification:Liberation Sans"
           x="79.547981"
           y="838.32867"
           id="text4043"
           sodipodi:linespacing="125%"
           transform="scale(0.95378691,1.0484522)"><tspan
             sodipodi:role="line"
             x="79.547981"
             y="838.32867"
             id="tspan4047">Einingar sem</tspan><tspan
             sodipodi:role="line"
             x="79.547981"
             y="861.89453"
             id="tspan4051">mynda manninn</tspan></text>
        <g
           id="g4176">
          <g
             id="g4171">
            <path
               sodipodi:open="true"
               sodipodi:end="4.8491727"
               sodipodi:start="0.17073435"
               transform="matrix(0.98892934,0.21184888,-0.34716856,1.0108296,130.64775,640.57987)"
               d="M 69.325998,330.22602 C 66.908873,346.16965 53.58444,356.8661 39.565043,354.11721 25.545647,351.36832 16.140148,336.21505 18.557272,320.27142 c 2.3593,-15.56221 15.140577,-26.19684 28.896783,-24.04351"
               sodipodi:ry="29.294424"
               sodipodi:rx="25.75889"
               sodipodi:cy="325.24872"
               sodipodi:cx="43.941635"
               id="path4071"
               style="fill:#ffffff;fill-opacity:1;stroke:#000000;stroke-width:3;stroke-linejoin:round;stroke-miterlimit:4;stroke-opacity:1;stroke-dasharray:none"
               sodipodi:type="arc" />
            <path
               sodipodi:open="true"
               sodipodi:end="7.592272"
               sodipodi:start="3.3076242"
               transform="translate(1.0101525,665.49416)"
               d="m 47.852234,290.77891 c 2.489472,-17.05682 16.550705,-28.56701 31.406643,-25.70873 14.855938,2.85829 24.880943,19.00266 22.391463,36.05948 -1.765798,12.09855 -9.521799,21.89913 -19.842354,25.07306"
               sodipodi:ry="31.31473"
               sodipodi:rx="27.274118"
               sodipodi:cy="295.95428"
               sodipodi:cx="74.751289"
               id="path4073"
               style="fill:#ffffff;fill-opacity:1;stroke:#000000;stroke-width:3;stroke-linejoin:round;stroke-miterlimit:4;stroke-opacity:1;stroke-dasharray:none"
               sodipodi:type="arc" />
            <path
               sodipodi:type="arc"
               style="fill:#ffffff;fill-opacity:1;stroke:#000000;stroke-width:3;stroke-linejoin:round;stroke-miterlimit:4;stroke-opacity:1;stroke-dasharray:none"
               id="path4083"
               sodipodi:cx="78.286819"
               sodipodi:cy="309.08627"
               sodipodi:rx="4.5456862"
               sodipodi:ry="6.0609155"
               d="m 82.832506,309.08627 a 4.5456862,6.0609155 0 1 1 -9.091373,0 4.5456862,6.0609155 0 1 1 9.091373,0 z"
               transform="translate(0,652.36218)" />
          </g>
          <path
             transform="translate(0,652.36218)"
             inkscape:connector-curvature="0"
             id="path4087"
             d="m 100.53571,289.55357 c 0.11905,-0.0595 0.29762,-0.29762 0.35715,-0.17857 0.0595,0.11905 -0.49024,0.17857 -0.35715,0.17857 0.14881,-0.0595 0.29762,-0.11905 0.44643,-0.17857 0,-0.0298 -0.021,-0.0682 0,-0.0893 0.0211,-0.021 0.0627,0.0133 0.0893,0 0.10714,-0.0536 0.16071,-0.21428 0.26786,-0.26785 0.0532,-0.0266 0.13648,0.0421 0.17857,0 0.021,-0.0211 -0.0211,-0.0682 0,-0.0893 0.021,-0.021 0.0619,0.0117 0.0893,0 0.18351,-0.0786 0.35715,-0.17857 0.53572,-0.26786 0.23809,-0.11904 0.48602,-0.22018 0.71428,-0.35714 0.0361,-0.0216 0.0516,-0.0705 0.0893,-0.0893 0.0534,-0.0267 0.17857,0.0588 0.17857,-0.0893 0,-0.0298 -0.0595,0 -0.0893,0 -0.0595,0 -0.11904,0 -0.17857,0"
             style="fill:none;stroke:#000000;stroke-width:1px;stroke-linecap:butt;stroke-linejoin:miter;stroke-opacity:1" />
          <path
             transform="translate(0,652.36218)"
             inkscape:connector-curvature="0"
             id="path4089"
             d="m 97.321429,283.92857 c 0.217554,-0.12615 0.08805,-0.53448 0.267857,-0.71428 0.184735,-0.18474 -0.0072,0.2823 0.178571,-0.0893 0.01331,-0.0266 -0.02104,-0.0682 0,-0.0893 0.184736,-0.18473 -0.0072,0.2823 0.178572,-0.0893 0.01331,-0.0266 -0.01331,-0.0627 0,-0.0893 0.01882,-0.0376 0.07046,-0.0516 0.08929,-0.0893 0.01331,-0.0266 -0.02105,-0.0682 0,-0.0893 0.02104,-0.021 0.06824,0.0211 0.08929,0 0.184736,-0.18473 -0.2823,0.007 0.08929,-0.17857 0.02662,-0.0133 0.06267,0.0133 0.08929,0 0.07529,-0.0376 0.103279,-0.14093 0.178571,-0.17857 0.05324,-0.0266 0.136482,0.0421 0.178572,0 0.02104,-0.0211 -0.02105,-0.0682 0,-0.0893 0.02104,-0.021 0.06267,0.0133 0.08929,0 0.110331,-0.0552 0.08929,-0.0862 0.08929,-0.17857"
             style="fill:none;stroke:#000000;stroke-width:1px;stroke-linecap:butt;stroke-linejoin:miter;stroke-opacity:1" />
          <path
             transform="translate(0,652.36218)"
             inkscape:connector-curvature="0"
             id="path4091"
             d="m 90.982143,278.83929 c 0,-0.20834 0,-0.41667 0,-0.625 0,-0.0298 0,-0.0595 0,-0.0893 0,-0.0298 -0.01331,-0.0627 0,-0.0893 0.01882,-0.0376 0.07046,-0.0516 0.08929,-0.0893 0.01331,-0.0266 -0.01331,-0.0627 0,-0.0893 0.01882,-0.0376 0.07598,-0.0494 0.08929,-0.0893 0.01882,-0.0565 -0.02662,-0.12533 0,-0.17857 0.01331,-0.0266 0.06824,0.021 0.08929,0 0.04209,-0.0421 -0.04209,-0.13649 0,-0.17858 0.02105,-0.021 0.06824,0.0211 0.08929,0 0.02105,-0.021 -0.02105,-0.0682 0,-0.0893 0.02105,-0.0211 0.06824,0.021 0.08929,0 0.02105,-0.0211 -0.02105,-0.0682 0,-0.0893 0.04706,-0.0471 0.131513,-0.0422 0.178571,-0.0893 0.02105,-0.0211 -0.02104,-0.0682 0,-0.0893 0.04706,-0.0471 0.131514,-0.0422 0.178572,-0.0893 0.04706,-0.0471 0.05237,-0.1232 0.08929,-0.17858 0.02335,-0.035 0.07046,-0.0516 0.08929,-0.0893 0.01331,-0.0266 -0.02105,-0.0682 0,-0.0893 0.02105,-0.021 0.06824,0.0211 0.08929,0 0.02105,-0.021 0,-0.0595 0,-0.0893 0,-0.0298 0,-0.0595 0,-0.0893"
             style="fill:none;stroke:#000000;stroke-width:1px;stroke-linecap:butt;stroke-linejoin:miter;stroke-opacity:1" />
          <path
             transform="translate(0,652.36218)"
             inkscape:connector-curvature="0"
             id="path4093"
             d="m 85.625,276.07143 c 0.05952,-0.14881 0.119048,-0.29762 0.178572,-0.44643 0,-0.0595 -0.01444,-0.12083 0,-0.17857 0.01614,-0.0646 0.06824,-0.11544 0.08929,-0.17857 0.0094,-0.0282 -0.01331,-0.0627 0,-0.0893 0.210812,-0.42162 -0.04696,0.54497 0.178572,-0.35714 0.0092,-0.0367 -0.01082,-0.16775 0,-0.17857 0.02105,-0.0211 0.06824,0.021 0.08929,0 0.02104,-0.0211 0,-0.0595 0,-0.0893 0,-0.0298 0,-0.0595 0,-0.0893 0,-0.17858 0,-0.35715 0,-0.53572 0,-0.0402 -0.01359,-0.24068 0,-0.26786 0.01882,-0.0376 0.07046,-0.0516 0.08929,-0.0893 0.01331,-0.0266 0,-0.0595 0,-0.0893 0,-0.0298 0,-0.0595 0,-0.0893"
             style="fill:none;stroke:#000000;stroke-width:1px;stroke-linecap:butt;stroke-linejoin:miter;stroke-opacity:1" />
          <path
             transform="translate(0,652.36218)"
             inkscape:connector-curvature="0"
             id="path4095"
             d="m 78.660714,274.28571 c 0,-0.68452 0,-1.36904 0,-2.05357 0,-0.17857 0,-0.35714 0,-0.53571 0,-0.0298 0.02105,-0.0682 0,-0.0893 -0.02104,-0.021 -0.05952,0 -0.08929,0 -0.02976,0 -0.05952,0 -0.08929,0 -0.02976,0 -0.06824,-0.021 -0.08929,0 -0.02104,0.0211 0,0.0595 0,0.0893 0,0.0298 0,0.0595 0,0.0893 0,0.0893 0,0.17858 0,0.26786"
             style="fill:none;stroke:#000000;stroke-width:1px;stroke-linecap:butt;stroke-linejoin:miter;stroke-opacity:1" />
          <path
             transform="translate(0,652.36218)"
             inkscape:connector-curvature="0"
             id="path4097"
             d="m 104.28571,295.80357 c 0.14881,-0.0595 0.29095,-0.1397 0.44643,-0.17857 0.0585,-0.0146 0.76074,0 0.80357,0 0.56548,0 1.13096,0 1.69643,0"
             style="fill:none;stroke:#000000;stroke-width:1px;stroke-linecap:butt;stroke-linejoin:miter;stroke-opacity:1" />
          <path
             transform="translate(0,652.36218)"
             inkscape:connector-curvature="0"
             id="path4099"
             d="m 105.44643,304.10714 c 0.11905,-0.0298 0.2361,-0.0691 0.35714,-0.0893 0.0587,-0.01 0.11905,0 0.17857,0 0.26786,0 0.53572,0 0.80357,0 0.80358,0 1.60715,0 2.41072,0"
             style="fill:none;stroke:#000000;stroke-width:1px;stroke-linecap:butt;stroke-linejoin:miter;stroke-opacity:1" />
          <path
             transform="translate(0,652.36218)"
             inkscape:connector-curvature="0"
             id="path4101"
             d="m 106.25,309.73214 c 0.002,0.0752 0.7662,-0.0422 0.89286,0 0.0399,0.0133 0.0494,0.076 0.0893,0.0893 0.0565,0.0188 0.12083,-0.0144 0.17857,0 0.12913,0.0323 0.23088,0.13648 0.35715,0.17857 0.0565,0.0188 0.13648,-0.0421 0.17857,0 0.021,0.021 -0.0211,0.0682 0,0.0893 0.021,0.021 0.0682,-0.0211 0.0893,0 0.0211,0.021 -0.021,0.0682 0,0.0893 0.0183,0.0183 0.23246,-0.0177 0.26786,0 0.0377,0.0188 0.0516,0.0705 0.0893,0.0893 0.0532,0.0266 0.13648,-0.0421 0.17857,0 0.021,0.021 -0.0211,0.0682 0,0.0893 0.021,0.0211 0.0595,0 0.0893,0 0.0893,0 0.17858,0 0.26786,0"
             style="fill:none;stroke:#000000;stroke-width:1px;stroke-linecap:butt;stroke-linejoin:miter;stroke-opacity:1" />
          <path
             transform="translate(0,652.36218)"
             inkscape:connector-curvature="0"
             id="path4103"
             d="m 105.53571,315.89286 c 1.1012,0 2.20239,0 3.30358,0"
             style="fill:none;stroke:#000000;stroke-width:1px;stroke-linecap:butt;stroke-linejoin:miter;stroke-opacity:1" />
          <path
             transform="translate(0,652.36218)"
             inkscape:connector-curvature="0"
             id="path4105"
             d="m 104.64286,322.23214 c 0,0.11905 0.11905,0.35715 0,0.35715 -0.11905,0 -0.11054,-0.40136 0,-0.35715 0.35388,0.14155 0.57878,0.49836 0.89285,0.71429 0.38418,0.26412 0.64792,0.28761 1.07143,0.44643 0.0623,0.0234 0.11544,0.0682 0.17857,0.0893 0.0282,0.009 0.0683,-0.021 0.0893,0 0.0211,0.0211 -0.021,0.0682 0,0.0893 0.0446,0.0446 0.22321,-0.0446 0.26786,0 0,0.13137 -0.0211,0.0682 0.0893,0.17857"
             style="fill:none;stroke:#000000;stroke-width:1px;stroke-linecap:butt;stroke-linejoin:miter;stroke-opacity:1" />
          <path
             transform="translate(0,652.36218)"
             inkscape:connector-curvature="0"
             id="path4107"
             d="m 100.26786,330.44643 c 0.11905,0 0.2404,-0.0233 0.35714,0 0.0595,0.0119 0.26113,0.34907 0.26786,0.35714 0.97492,1.1699 -0.43472,-0.69671 0.44643,0.625 0.0467,0.07 0.11904,0.11905 0.17857,0.17857 0.0893,0.0893 0.17857,0.17857 0.26785,0.26786 0.003,0.003 0.32108,0.33911 0.35715,0.35714 0.0266,0.0133 0.0682,-0.021 0.0893,0 0.0211,0.0211 -0.021,0.0682 0,0.0893 0.003,0.003 0.24621,0 0.26786,0"
             style="fill:none;stroke:#000000;stroke-width:1px;stroke-linecap:butt;stroke-linejoin:miter;stroke-opacity:1" />
          <path
             transform="translate(0,652.36218)"
             inkscape:connector-curvature="0"
             id="path4109"
             d="m 95.535715,336.16071 c 0.205191,0.41039 0.178571,0.22405 0.178571,0.53572 0,0.14881 -0.02918,0.30051 0,0.44643 0.01305,0.0652 0.07314,0.11401 0.08929,0.17857 7.46e-4,0.003 -4.75e-4,0.26738 0,0.26786 0.02105,0.021 0.06824,-0.0211 0.08929,0 0.02104,0.021 0,0.0595 0,0.0893 0,0.20833 0,0.41667 0,0.625 0,0.17857 0,0.35714 0,0.53572 0,0.0298 -0.02104,0.0682 0,0.0893 0.02104,0.0211 0.06824,0.0211 0.08929,0 0.02105,-0.021 0,-0.0595 0,-0.0893"
             style="fill:none;stroke:#000000;stroke-width:1px;stroke-linecap:butt;stroke-linejoin:miter;stroke-opacity:1" />
          <path
             transform="translate(0,652.36218)"
             inkscape:connector-curvature="0"
             id="path4111"
             d="m 89.375,340.80357 c 0.386718,0.25393 0.542229,0.63369 0.803572,0.98214 0.05051,0.0674 0.131877,0.10853 0.178571,0.17858 0.03692,0.0554 0.04223,0.13151 0.08929,0.17857 0.02105,0.021 0.06267,-0.0133 0.08929,0 0.371585,0.18579 -0.09545,-0.006 0.08929,0.17857 0.02105,0.021 0.06824,-0.0211 0.08929,0 0.184735,0.18473 -0.2823,-0.007 0.08929,0.17857 0.02662,0.0133 0.06824,-0.021 0.08929,0 0.04209,0.0421 -0.02662,0.12533 0,0.17857 0.01882,0.0377 0.05952,0.0595 0.08929,0.0893"
             style="fill:none;stroke:#000000;stroke-width:1px;stroke-linecap:butt;stroke-linejoin:miter;stroke-opacity:1" />
          <path
             transform="translate(0,652.36218)"
             inkscape:connector-curvature="0"
             id="path4113"
             d="m 84.821429,344.10714 c 0.119047,0.0893 0.251918,0.16264 0.357143,0.26786 0.07588,0.0759 0.109874,0.18542 0.178571,0.26786 0.08084,0.097 0.178572,0.17857 0.267857,0.26785 0.118727,0.11873 0.238417,0.23842 0.357143,0.35715 0.05952,0.0595 0.119048,0.11904 0.178572,0.17857 0.05952,0.0595 0.108529,0.13188 0.178571,0.17857 0.02476,0.0165 0.06824,-0.021 0.08929,0 0.02105,0.021 -0.02105,0.0682 0,0.0893 0.04209,0.0421 0.122102,-0.0188 0.178571,0 0.06314,0.021 0.115437,0.0682 0.178572,0.0893 0.05647,0.0188 0.136481,-0.0421 0.178571,0 0.02105,0.0211 -0.02105,0.0682 0,0.0893 0.02105,0.021 0.06105,-0.009 0.08929,0 0.06313,0.021 0.115437,0.0682 0.178571,0.0893 0.02824,0.009 0.06267,-0.0133 0.08929,0 0.03765,0.0188 0.05164,0.0705 0.08929,0.0893 0.05324,0.0266 0.136481,-0.0421 0.178571,0 0.119048,0.11905 -0.14881,0.0893 0.08929,0.0893"
             style="fill:none;stroke:#000000;stroke-width:1px;stroke-linecap:butt;stroke-linejoin:miter;stroke-opacity:1" />
          <path
             transform="translate(0,652.36218)"
             inkscape:connector-curvature="0"
             id="path4115"
             d="m 80.803572,348.21429 c 0.367005,0 0.325513,-0.0842 0.535714,0.17857 0.06704,0.0838 0.102693,0.19198 0.178571,0.26785 0.105225,0.10523 0.244159,0.17102 0.357143,0.26786 0.09587,0.0822 0.178572,0.17857 0.267857,0.26786 0.05952,0.0595 0.131877,0.10853 0.178572,0.17857 0,0.2381 -0.02976,-0.0298 0.08929,0.0893 0.02104,0.021 -0.02105,0.0682 0,0.0893 0.02104,0.0211 0.06824,-0.021 0.08929,0 0.01825,0.0183 -0.0177,0.23246 0,0.26786 0.110331,0.22066 0.08929,-0.0308 0.08929,0.17857 0,0.20939 -0.02105,-0.0421 0.08929,0.17857 0.02113,0.0423 -0.01465,0.5664 0,0.625 0.01021,0.0408 0.07046,0.0516 0.08929,0.0893 0.02662,0.0532 -0.04209,0.13648 0,0.17857 0.02104,0.021 0.06824,0.021 0.08929,0 0.02105,-0.0211 0,-0.0595 0,-0.0893"
             style="fill:none;stroke:#000000;stroke-width:1px;stroke-linecap:butt;stroke-linejoin:miter;stroke-opacity:1" />
          <path
             transform="translate(0,652.36218)"
             inkscape:connector-curvature="0"
             id="path4117"
             d="m 74.375,353.39286 c 0.178572,0.14881 0.342306,0.31749 0.535714,0.44643 0.07831,0.0522 0.183678,0.0472 0.267858,0.0893 0.03765,0.0188 0.05952,0.0595 0.08929,0.0893 0.02976,0.0298 0.07046,0.0516 0.08929,0.0893 0.01331,0.0266 -0.01331,0.0627 0,0.0893 0.185793,0.37158 -0.0062,-0.0955 0.178571,0.0893 0.02105,0.0211 -0.02104,0.0682 0,0.0893 0.02105,0.021 0.06267,-0.0133 0.08929,0 0.03765,0.0188 0.05952,0.0595 0.08929,0.0893 0.02976,0.0298 0.07046,0.0516 0.08929,0.0893 0.01331,0.0266 -0.01331,0.0627 0,0.0893 0.01882,0.0376 0.07046,0.0516 0.08929,0.0893 0.01331,0.0266 -0.0094,0.061 0,0.0893 0.215578,0.64673 -0.02574,-0.14077 0.178572,0.26786 0.01331,0.0266 0,0.0595 0,0.0893"
             style="fill:none;stroke:#000000;stroke-width:1px;stroke-linecap:butt;stroke-linejoin:miter;stroke-opacity:1" />
          <path
             transform="translate(0,652.36218)"
             inkscape:connector-curvature="0"
             id="path4119"
             d="m 69.375,356.33929 c 0.610491,0.81398 0.145089,0.0446 0.267857,0.53571 0.01614,0.0646 0.07623,0.11331 0.08929,0.17857 0.01751,0.0876 -0.02165,0.18124 0,0.26786 0.01021,0.0408 0.07598,0.0494 0.08929,0.0893 0.01882,0.0565 0,0.11905 0,0.17858 0,0.0298 -0.01331,0.0627 0,0.0893 0.01882,0.0377 0.07598,0.0494 0.08929,0.0893 0.01646,0.0494 0,0.4458 0,0.53571 0,0.35714 0,0.71429 0,1.07143"
             style="fill:none;stroke:#000000;stroke-width:1px;stroke-linecap:butt;stroke-linejoin:miter;stroke-opacity:1" />
          <path
             transform="translate(0,652.36218)"
             inkscape:connector-curvature="0"
             id="path4121"
             d="m 61.339286,359.01786 c 0,0.35714 0,0.71428 0,1.07143 0,0.0893 0.02165,0.18123 0,0.26785 -0.01448,0.0579 -0.229925,0.47882 -0.267857,0.53572 -0.02335,0.035 -0.07046,0.0516 -0.08929,0.0893 -0.01331,0.0266 0.02105,0.0682 0,0.0893 -0.02105,0.021 -0.06824,-0.0211 -0.08929,0 -0.02105,0.021 0,0.0595 0,0.0893 0,0.14881 0,0.29762 0,0.44643"
             style="fill:none;stroke:#000000;stroke-width:1px;stroke-linecap:butt;stroke-linejoin:miter;stroke-opacity:1" />
          <path
             transform="translate(0,652.36218)"
             inkscape:connector-curvature="0"
             id="path4123"
             d="m 54.017857,359.375 c 0,0.14881 0,0.29762 0,0.44643 0,0.0298 0.02105,0.0682 0,0.0893 -0.02105,0.0211 -0.06267,-0.0133 -0.08928,0 -0.03765,0.0188 -0.0532,0.0676 -0.08929,0.0893 -0.114132,0.0685 -0.246398,0.10474 -0.357143,0.17857 -0.158563,0.10571 -0.292308,0.24506 -0.446429,0.35714 -0.173567,0.12624 -0.357142,0.2381 -0.535714,0.35715 -0.08929,0.0595 -0.175841,0.12336 -0.267857,0.17857 -0.05707,0.0342 -0.131514,0.0422 -0.178571,0.0893 -0.0029,0.003 0,0.24621 0,0.26786 0,0.2381 0,0.47619 0,0.71429 0,0.0298 0,0.0595 0,0.0893 0,0.0298 -0.02105,0.0682 0,0.0893 0.02104,0.021 0.06824,-0.0211 0.08928,0 0.02105,0.021 -0.01331,0.0627 0,0.0893 0.01882,0.0376 0.05952,0.0595 0.08929,0.0893"
             style="fill:none;stroke:#000000;stroke-width:1px;stroke-linecap:butt;stroke-linejoin:miter;stroke-opacity:1" />
          <path
             transform="translate(0,652.36218)"
             inkscape:connector-curvature="0"
             id="path4125"
             d="m 47.857143,358.30357 c -0.334128,0.0533 -0.667276,0.14191 -0.982143,0.26786 -0.182491,0.073 -0.359846,0.17992 -0.535714,0.26786 -0.120023,0.06 -0.23712,0.11856 -0.357143,0.17857 -0.05952,0.0298 -0.123199,0.0524 -0.178571,0.0893 -0.07004,0.0467 -0.10328,0.14093 -0.178572,0.17857 -0.02662,0.0133 -0.06267,-0.0133 -0.08929,0 -0.296123,0.29613 0.08418,-0.0421 -0.178571,0.0893 -0.08786,0.0439 -0.269283,0.31321 -0.357143,0.35714 -0.02662,0.0133 -0.06267,-0.0133 -0.08929,0 -0.03765,0.0188 -0.05164,0.0705 -0.08928,0.0893 -0.02662,0.0133 -0.06824,-0.0211 -0.08929,0 -0.0029,0.003 0,0.2462 0,0.26786"
             style="fill:none;stroke:#000000;stroke-width:1px;stroke-linecap:butt;stroke-linejoin:miter;stroke-opacity:1" />
          <path
             transform="translate(0,652.36218)"
             inkscape:connector-curvature="0"
             id="path4127"
             d="m 41.785714,355.71429 c -1.13528,0.64873 -0.185741,0.18096 -0.982142,0.44642 -0.152049,0.0507 -0.292323,0.13455 -0.446429,0.17858 -0.05723,0.0163 -0.120204,-0.0117 -0.178571,0 -0.09229,0.0184 -0.178572,0.0595 -0.267858,0.0893 -0.08928,0.0298 -0.180473,0.0543 -0.267857,0.0893 -0.06179,0.0247 -0.116781,0.0646 -0.178571,0.0893 -0.08738,0.035 -0.183678,0.0472 -0.267857,0.0893 -0.175272,0.0876 -0.0402,0.16968 -0.08929,0.26786 -0.01882,0.0376 -0.07046,0.0516 -0.08929,0.0893 -0.01331,0.0266 0.01331,0.0627 0,0.0893 -0.01882,0.0376 -0.07046,0.0516 -0.08928,0.0893 -0.01331,0.0266 0.01331,0.0627 0,0.0893 -0.05357,0.10714 -0.214286,0.16071 -0.267858,0.26786 -0.01331,0.0266 0,0.0595 0,0.0893"
             style="fill:none;stroke:#000000;stroke-width:1px;stroke-linecap:butt;stroke-linejoin:miter;stroke-opacity:1" />
          <path
             transform="translate(0,652.36218)"
             inkscape:connector-curvature="0"
             id="path4129"
             d="m 36.071429,349.82143 c -0.119048,0.0595 -0.238096,0.11905 -0.357143,0.17857 -0.02976,0 -0.06267,-0.0133 -0.08929,0 -0.03765,0.0188 -0.05164,0.0705 -0.08929,0.0893 -0.171972,0.086 -0.453356,0.12135 -0.625,0.17857 -0.06313,0.021 -0.116781,0.0646 -0.178571,0.0893 -0.08738,0.035 -0.180473,0.0543 -0.267857,0.0893 -0.06179,0.0247 -0.123199,0.0524 -0.178572,0.0893 -0.163369,0.10892 -0.0089,0.11384 -0.267857,0.17858 -0.05775,0.0144 -0.125331,-0.0266 -0.178571,0 -0.07529,0.0376 -0.111228,0.12806 -0.178572,0.17857 -0.05324,0.0399 -0.123198,0.0524 -0.178571,0.0893 -0.03502,0.0233 -0.05164,0.0705 -0.08929,0.0893 -0.02662,0.0133 -0.06824,-0.0211 -0.08928,0 -0.02105,0.021 0.02104,0.0682 0,0.0893 -0.02105,0.0211 -0.06824,-0.021 -0.08929,0 -0.02105,0.0211 0.02105,0.0682 0,0.0893 -0.02105,0.021 -0.06267,-0.0133 -0.08929,0 -0.09598,0.048 -0.171878,0.13058 -0.267857,0.17857 -0.02662,0.0133 -0.06824,-0.021 -0.08929,0 -0.02105,0.0211 -0.02662,0.076 0,0.0893 0.05324,0.0266 0.119048,0 0.178572,0"
             style="fill:none;stroke:#000000;stroke-width:1px;stroke-linecap:butt;stroke-linejoin:miter;stroke-opacity:1" />
          <path
             transform="translate(0,652.36218)"
             inkscape:connector-curvature="0"
             id="path4137"
             d="m 32.678572,344.01786 c -0.14881,0 -0.29762,0 -0.446429,0 -0.684524,0 -1.369048,0 -2.053571,0 -0.07028,0 -0.43926,-0.007 -0.446429,0 -0.02105,0.021 0.02105,0.0682 0,0.0893 -0.02105,0.0211 -0.06824,-0.021 -0.08929,0 -0.0036,0.004 0,0.32436 0,0.35715"
             style="fill:none;stroke:#000000;stroke-width:1px;stroke-linecap:butt;stroke-linejoin:miter;stroke-opacity:1" />
          <path
             transform="translate(0,652.36218)"
             inkscape:connector-curvature="0"
             id="path4139"
             d="m 31.428572,338.48214 c -0.14881,-0.0595 -0.292323,-0.13454 -0.446429,-0.17857 -0.05723,-0.0163 -0.120825,0.0144 -0.178571,0 -0.129126,-0.0323 -0.230874,-0.13648 -0.357143,-0.17857 -0.02823,-0.009 -0.06105,0.009 -0.08929,0 -0.06313,-0.0211 -0.114009,-0.0731 -0.178571,-0.0893 -0.08851,-0.0221 -0.367367,0.0264 -0.446429,0 -0.06313,-0.021 -0.115437,-0.0682 -0.178571,-0.0893 -0.02652,-0.009 -0.428103,-0.009 -0.446429,0 -0.07529,0.0376 -0.103279,0.14092 -0.178571,0.17857 -0.05268,0.0263 -0.206444,-0.0205 -0.267858,0 -0.646733,0.21558 0.140769,-0.0257 -0.267857,0.17857 -0.02662,0.0133 -0.05952,0 -0.08929,0"
             style="fill:none;stroke:#000000;stroke-width:1px;stroke-linecap:butt;stroke-linejoin:miter;stroke-opacity:1" />
          <path
             transform="translate(0,652.36218)"
             inkscape:connector-curvature="0"
             id="path4141"
             d="m 30.714286,330.53571 c -0.178572,0.0298 -0.362315,0.0373 -0.535714,0.0893 -0.127486,0.0383 -0.232519,0.13184 -0.357143,0.17857 -0.740259,0.2776 -0.0187,-0.032 -0.625,0.0893 -0.06526,0.0131 -0.116782,0.0646 -0.178572,0.0893 -0.08738,0.035 -0.175569,0.0708 -0.267857,0.0893 -0.05837,0.0117 -0.119048,0 -0.178571,0 -0.05952,0.0298 -0.115437,0.0682 -0.178572,0.0893 -0.06141,0.0205 -0.215177,-0.0263 -0.267857,0 -0.296123,0.29613 0.08418,-0.0421 -0.178571,0.0893 -0.03765,0.0188 -0.05164,0.0705 -0.08929,0.0893 -0.02845,0.0142 -0.366632,0 -0.446429,0"
             style="fill:none;stroke:#000000;stroke-width:1px;stroke-linecap:butt;stroke-linejoin:miter;stroke-opacity:1" />
          <path
             transform="translate(0,652.36218)"
             inkscape:connector-curvature="0"
             id="path4143"
             d="m 31.785714,323.92857 c -0.119047,-0.11905 -0.220143,-0.25929 -0.357142,-0.35714 -0.07658,-0.0547 -0.180474,-0.0543 -0.267858,-0.0893 -0.123579,-0.0494 -0.230873,-0.13648 -0.357142,-0.17857 -0.02823,-0.009 -0.06041,0.007 -0.08929,0 -0.09131,-0.0228 -0.176552,-0.0665 -0.267857,-0.0893 -0.03666,-0.009 -0.167749,0.0108 -0.178572,0 -0.02105,-0.0211 0.02105,-0.0682 0,-0.0893 -0.004,-0.004 -0.40433,0 -0.446428,0 -0.0421,0 -0.442382,-0.004 -0.446429,0 -0.02105,0.021 0.01331,0.0627 0,0.0893 -0.06808,0.13615 -0.234632,0.0893 -0.357143,0.0893 -0.02976,0 -0.06824,-0.021 -0.08929,0 -0.02104,0.0211 0,0.0595 0,0.0893"
             style="fill:none;stroke:#000000;stroke-width:1px;stroke-linecap:butt;stroke-linejoin:miter;stroke-opacity:1" />
          <path
             transform="translate(0,652.36218)"
             inkscape:connector-curvature="0"
             id="path4145"
             d="m 32.946429,319.01786 c -0.13966,-0.97762 0.09323,-0.45637 -0.892857,-1.16072 -0.189108,-0.13507 -0.585645,-0.48879 -0.803572,-0.625 -0.169302,-0.10581 -0.357143,-0.17857 -0.535714,-0.26785 -0.05952,-0.0298 -0.123199,-0.0524 -0.178572,-0.0893 -0.03502,-0.0233 -0.05164,-0.0705 -0.08929,-0.0893 -0.02348,-0.0117 -0.310454,0 -0.357143,0 -0.02976,0 -0.06824,-0.021 -0.08929,0 -0.02105,0.0211 0.02105,0.0682 0,0.0893 -0.02105,0.021 -0.06824,-0.0211 -0.08929,0 -0.02104,0.021 0.02105,0.0682 0,0.0893 -0.02104,0.021 -0.06824,-0.0211 -0.08929,0 -0.02104,0.021 0,0.0595 0,0.0893 0,0.0298 -0.01331,0.0627 0,0.0893 0.01882,0.0376 0.05952,0.0595 0.08929,0.0893"
             style="fill:none;stroke:#000000;stroke-width:1px;stroke-linecap:butt;stroke-linejoin:miter;stroke-opacity:1" />
          <path
             transform="translate(0,652.36218)"
             inkscape:connector-curvature="0"
             id="path4147"
             d="m 36.160714,311.69643 c -0.914744,-1.1761 -0.269283,-0.45664 -1.25,-1.33929 -0.09385,-0.0845 -0.162795,-0.19781 -0.267857,-0.26785 -0.07831,-0.0522 -0.183678,-0.0472 -0.267857,-0.0893 -0.03765,-0.0188 -0.05164,-0.0705 -0.08929,-0.0893 -0.02662,-0.0133 -0.05952,0 -0.08928,0 -0.08992,0 -0.486338,0.0165 -0.535715,0 -0.03993,-0.0133 -0.04936,-0.076 -0.08928,-0.0893 -0.048,-0.016 -0.281549,0 -0.357143,0 -0.297619,0 -0.595238,0 -0.892857,0"
             style="fill:none;stroke:#000000;stroke-width:1px;stroke-linecap:butt;stroke-linejoin:miter;stroke-opacity:1" />
          <path
             transform="translate(0,652.36218)"
             inkscape:connector-curvature="0"
             id="path4149"
             d="m 39.732143,305.08929 c -0.255512,-0.19164 -0.359853,-0.18671 -0.446429,-0.44643 -0.01882,-0.0565 0.02662,-0.12533 0,-0.17857 -0.01882,-0.0376 -0.07046,-0.0516 -0.08928,-0.0893 -0.01331,-0.0266 0.02105,-0.0682 0,-0.0893 -0.02105,-0.021 -0.06267,0.0133 -0.08929,0 -0.03765,-0.0188 -0.05164,-0.0705 -0.08929,-0.0893 -0.02662,-0.0133 -0.06267,0.0133 -0.08928,0 -0.03765,-0.0188 -0.05164,-0.0705 -0.08929,-0.0893 -0.02662,-0.0133 -0.06267,0.0133 -0.08929,0 -0.107143,-0.0536 -0.160714,-0.21428 -0.267857,-0.26785 -0.0442,-0.0221 -0.390376,0.0112 -0.446429,0 -0.09229,-0.0185 -0.175569,-0.0708 -0.267857,-0.0893 -0.05837,-0.0117 -0.125331,0.0266 -0.178571,0 -0.07529,-0.0376 -0.103279,-0.14093 -0.178572,-0.17857 -0.406454,0 -0.0051,0.0421 -0.267857,-0.0893 -0.02662,-0.0133 -0.06824,0.0211 -0.08928,0 -0.02105,-0.021 0.02104,-0.0682 0,-0.0893 -0.02105,-0.0211 -0.06267,0.0133 -0.08929,0 -0.03765,-0.0188 -0.05164,-0.0705 -0.08929,-0.0893 -0.02309,-0.0115 -0.472428,0 -0.535714,0 -0.02976,0 -0.05952,0 -0.08929,0 -0.02976,0 -0.06824,0.0211 -0.08929,0 -0.02104,-0.021 -0.02104,-0.0682 0,-0.0893 0.02105,-0.0211 0.05952,0 0.08929,0"
             style="fill:none;stroke:#000000;stroke-width:1px;stroke-linecap:butt;stroke-linejoin:miter;stroke-opacity:1" />
          <path
             transform="translate(0,652.36218)"
             inkscape:connector-curvature="0"
             id="path4151"
             d="m 43.928572,300.08929 c -0.05952,-0.11905 -0.09195,-0.25609 -0.178572,-0.35715 -0.624041,-0.46803 -0.14404,-0.0461 -0.535714,-0.53571 -0.05259,-0.0657 -0.119048,-0.11905 -0.178572,-0.17857 -0.02976,-0.0298 -0.07046,-0.0516 -0.08928,-0.0893 -0.01331,-0.0266 0.01331,-0.0627 0,-0.0893 -0.01882,-0.0376 -0.07046,-0.0516 -0.08929,-0.0893 -0.01331,-0.0266 0.01331,-0.0627 0,-0.0893 -0.01882,-0.0376 -0.07046,-0.0516 -0.08929,-0.0893 -0.01331,-0.0266 0.02105,-0.0682 0,-0.0893 -0.02105,-0.021 -0.06105,0.009 -0.08928,0 -0.06314,-0.021 -0.123199,-0.0524 -0.178572,-0.0893 -0.103022,-0.0687 -0.164835,-0.19918 -0.267857,-0.26786 -0.389959,-0.25997 0.02943,0.0396 -0.357143,-0.0893 -0.03993,-0.0133 -0.05164,-0.0705 -0.08929,-0.0893 -0.143352,-0.0717 -0.29636,-0.1223 -0.446428,-0.17857 -0.165942,-0.0622 -0.300386,-0.0812 -0.446429,-0.17857 -0.03502,-0.0233 -0.05164,-0.0705 -0.08928,-0.0893 -0.112313,-0.0562 -0.178572,0.12823 -0.178572,-0.0893"
             style="fill:none;stroke:#000000;stroke-width:1px;stroke-linecap:butt;stroke-linejoin:miter;stroke-opacity:1" />
          <path
             transform="translate(0,652.36218)"
             inkscape:connector-curvature="0"
             id="path4153"
             d="m 47.410714,295 c -0.01454,-0.15859 0.073,-0.552 -0.08928,-0.71429 -0.04706,-0.0471 -0.123199,-0.0524 -0.178572,-0.0893 -0.07004,-0.0467 -0.103279,-0.14093 -0.178571,-0.17857 -0.02662,-0.0133 -0.06105,0.009 -0.08929,0 -0.108377,-0.0361 -0.248766,-0.14245 -0.357143,-0.17857 -0.06141,-0.0205 -0.215177,0.0263 -0.267857,0 -0.03765,-0.0188 -0.05164,-0.0705 -0.08929,-0.0893 -0.02662,-0.0133 -0.06266,0.0133 -0.08928,0 -0.03765,-0.0188 -0.05164,-0.0705 -0.08929,-0.0893 -0.07143,-0.0357 -0.196429,0.0357 -0.267857,0 -0.03765,-0.0188 -0.05952,-0.0595 -0.08929,-0.0893 -0.129625,-0.12963 -0.08929,-0.0967 -0.08929,-0.26786"
             style="fill:none;stroke:#000000;stroke-width:1px;stroke-linecap:butt;stroke-linejoin:miter;stroke-opacity:1" />
          <path
             transform="translate(0,652.36218)"
             inkscape:connector-curvature="0"
             id="path4155"
             d="m 48.660714,289.82143 c -0.08597,-0.2662 -0.313329,0.0666 -0.446428,0 -0.03765,-0.0188 -0.05952,-0.0595 -0.08929,-0.0893 -0.02976,-0.0298 -0.05952,-0.0595 -0.08929,-0.0893 -0.02976,-0.0298 -0.05952,-0.0595 -0.08928,-0.0893 -0.02976,-0.0298 -0.05164,-0.0705 -0.08929,-0.0893 -0.02662,-0.0133 -0.05952,0 -0.08929,0 -0.02976,-0.0298 -0.05164,-0.0705 -0.08928,-0.0893 -0.02662,-0.0133 -0.06824,0.021 -0.08929,0 -0.02105,-0.0211 0.02105,-0.0682 0,-0.0893 -0.02105,-0.021 -0.06824,0.0211 -0.08929,0 -0.02105,-0.021 0,-0.0595 0,-0.0893 0,-0.17857 0,-0.35714 0,-0.53572 0,-0.0298 0,-0.0595 0,-0.0893"
             style="fill:none;stroke:#000000;stroke-width:1px;stroke-linecap:butt;stroke-linejoin:miter;stroke-opacity:1" />
          <path
             transform="translate(0,652.36218)"
             inkscape:connector-curvature="0"
             id="path4157"
             d="m 52.142857,285.53571 c -0.05952,-0.11904 -0.297619,-0.29762 -0.178571,-0.35714 0.119047,-0.0595 0.297619,0.41667 0.178571,0.35714 -1.347451,0.35056 -0.205386,-0.38395 -0.357143,-0.53571 -0.04209,-0.0421 -0.125331,0.0266 -0.178571,0 -0.296123,-0.29612 0.08418,0.0421 -0.178571,-0.0893 -0.07529,-0.0376 -0.10328,-0.14092 -0.178572,-0.17857 -0.02662,-0.0133 -0.06824,0.0211 -0.08929,0 -0.02104,-0.021 0.02662,-0.076 0,-0.0893 -0.07143,-0.0357 -0.196428,0.0357 -0.267857,0 -0.07529,-0.0376 -0.103279,-0.14093 -0.178571,-0.17857 -0.02662,-0.0133 -0.06824,0.021 -0.08929,0 -0.02105,-0.0211 0.02105,-0.0682 0,-0.0893 -0.02105,-0.0211 -0.05952,0 -0.08929,0 -0.178571,0 -0.357142,0 -0.535714,0"
             style="fill:none;stroke:#000000;stroke-width:1px;stroke-linecap:butt;stroke-linejoin:miter;stroke-opacity:1" />
          <path
             transform="translate(0,652.36218)"
             inkscape:connector-curvature="0"
             id="path4159"
             d="m 55.535714,283.125 c 0,-0.2381 0,-0.47619 0,-0.71429 0,-0.0298 0.0094,-0.0611 0,-0.0893 -0.02104,-0.0631 -0.06824,-0.11544 -0.08928,-0.17857 -0.03163,-0.0949 0.03162,-0.26227 0,-0.35715 -0.02105,-0.0631 -0.06824,-0.11543 -0.08929,-0.17857 -0.0094,-0.0282 0.01786,-0.0655 0,-0.0893 -0.07576,-0.10102 -0.178571,-0.17857 -0.267857,-0.26786 -0.02976,-0.0298 -0.05427,-0.0659 -0.08929,-0.0893 -0.05537,-0.0369 -0.123199,-0.0524 -0.178571,-0.0893 -0.03502,-0.0233 -0.05952,-0.0595 -0.08929,-0.0893 -0.02976,-0.0298 -0.07046,-0.0516 -0.08929,-0.0893 -0.01331,-0.0266 0.0094,-0.061 0,-0.0893 -0.215578,-0.64673 0.02574,0.14077 -0.178571,-0.26786 -0.01331,-0.0266 0.02105,-0.0682 0,-0.0893 -0.01386,-0.0139 -0.233114,0.0116 -0.267857,0 -0.06314,-0.0211 -0.115437,-0.0682 -0.178572,-0.0893 -0.06141,-0.0205 -0.215176,0.0263 -0.267857,0 -0.371586,-0.18579 0.09545,0.006 -0.08929,-0.17857 -0.119047,-0.11905 -0.08928,0.14881 -0.08928,-0.0893"
             style="fill:none;stroke:#000000;stroke-width:1px;stroke-linecap:butt;stroke-linejoin:miter;stroke-opacity:1" />
          <path
             transform="translate(0,652.36218)"
             inkscape:connector-curvature="0"
             id="path4161"
             d="m 58.928572,280.17857 c 0,-0.11905 0,-0.23809 0,-0.35714 0,-0.0614 0.01733,-0.48373 0,-0.53572 -0.215578,-0.64673 0.02574,0.14077 -0.178572,-0.26785 -0.07903,-0.15806 0.132807,-0.0305 -0.08929,-0.17857 -0.05537,-0.0369 -0.131513,-0.0422 -0.178571,-0.0893 -0.02105,-0.0211 0.02105,-0.0682 0,-0.0893 -0.04706,-0.0471 -0.123199,-0.0524 -0.178571,-0.0893 -0.103022,-0.0687 -0.164836,-0.19918 -0.267858,-0.26786 -0.05537,-0.0369 -0.115436,-0.0682 -0.178571,-0.0893 -0.02824,-0.009 -0.06824,0.021 -0.08929,0 -0.02105,-0.0211 0.02105,-0.0682 0,-0.0893 -0.02105,-0.0211 -0.06824,0.021 -0.08928,0 -0.108109,-0.21622 -0.04223,-0.13151 -0.178572,-0.26786"
             style="fill:none;stroke:#000000;stroke-width:1px;stroke-linecap:butt;stroke-linejoin:miter;stroke-opacity:1" />
          <path
             transform="translate(0,652.36218)"
             inkscape:connector-curvature="0"
             id="path4163"
             d="m 62.232143,277.94643 c 0,-0.41667 0,-0.83334 0,-1.25 0,-0.0467 0.01174,-0.33367 0,-0.35714 -0.185793,-0.37159 0.0062,0.0954 -0.178571,-0.0893 -0.02105,-0.0211 0.02104,-0.0682 0,-0.0893 -0.02105,-0.021 -0.06824,0.0211 -0.08929,0 -0.02105,-0.021 0.02105,-0.0682 0,-0.0893 -0.02105,-0.0211 -0.06824,0.021 -0.08929,0 -0.02105,-0.0211 0.02662,-0.076 0,-0.0893 -0.05776,-0.0289 -0.32507,0.0321 -0.357143,0 -0.02105,-0.021 0.02105,-0.0682 0,-0.0893 -0.02105,-0.0211 -0.06824,0.021 -0.08928,0 -0.02105,-0.0211 -0.02976,-0.0893 0,-0.0893 0.06655,0 0.208333,0.0298 0.178571,0.0893 -0.02976,0.0595 -0.119048,-0.0595 -0.178571,-0.0893"
             style="fill:none;stroke:#000000;stroke-width:1px;stroke-linecap:butt;stroke-linejoin:miter;stroke-opacity:1" />
          <path
             transform="translate(0,652.36218)"
             inkscape:connector-curvature="0"
             id="path4165"
             d="m 65.892857,276.16071 c 0.106062,-0.24589 0.08929,-0.46142 0.08929,-0.71428 0,-0.45246 -0.02662,0.10648 0.08929,-0.35714 0.01444,-0.0577 0,-0.11905 0,-0.17858 0,-0.17857 0,-0.35714 0,-0.53571 0,-0.0217 0.0029,-0.26499 0,-0.26786 -0.02105,-0.021 -0.06824,0.0211 -0.08929,0 -0.0056,-0.006 0.004,-0.43026 0,-0.44643 -0.01614,-0.0646 -0.07314,-0.114 -0.08929,-0.17857 -0.01444,-0.0577 0.01882,-0.1221 0,-0.17857 -0.0929,-0.27869 -0.05952,0.0298 -0.178571,-0.0893 -0.02105,-0.0211 0.02105,-0.0682 0,-0.0893 -0.02105,-0.0211 -0.07598,-0.0266 -0.08929,0 -0.02662,0.0532 0,0.11905 0,0.17857"
             style="fill:none;stroke:#000000;stroke-width:1px;stroke-linecap:butt;stroke-linejoin:miter;stroke-opacity:1" />
          <path
             transform="translate(0,652.36218)"
             inkscape:connector-curvature="0"
             id="path4167"
             d="m 72.053572,274.375 c 0.02976,-0.11905 0.07406,-0.23538 0.08929,-0.35714 0.01983,-0.15864 0,-0.36485 0,-0.53572 0,-0.32738 0,-0.65476 0,-0.98214 0,-0.0633 0.01154,-0.51263 0,-0.53571 -0.03765,-0.0753 -0.140925,-0.10328 -0.178571,-0.17858 -0.01331,-0.0266 0.02105,-0.0682 0,-0.0893 -0.02105,-0.0211 -0.06824,0.021 -0.08929,0 -0.02105,-0.0211 0.02105,-0.0682 0,-0.0893 -0.004,-0.004 -0.40433,0 -0.446428,0"
             style="fill:none;stroke:#000000;stroke-width:1px;stroke-linecap:butt;stroke-linejoin:miter;stroke-opacity:1" />
        </g>
      </g>
      <g
         id="g4252">
        <text
           xml:space="preserve"
           style="font-size:17.46772194px;font-style:normal;font-variant:normal;font-weight:normal;font-stretch:normal;text-align:center;line-height:125%;letter-spacing:0px;word-spacing:0px;writing-mode:lr-tb;text-anchor:middle;fill:#000000;fill-opacity:1;stroke:none;font-family:Liberation Sans;-inkscape-font-specification:Liberation Sans"
           x="237.25945"
           y="853.61462"
           id="text4053"
           sodipodi:linespacing="125%"
           transform="scale(0.97042896,1.0304721)"><tspan
             sodipodi:role="line"
             id="tspan4055"
             x="237.25945"
             y="853.61462">Heildirnar sem</tspan><tspan
             sodipodi:role="line"
             x="237.25945"
             y="875.44928"
             id="tspan4057">maðurinn myndar</tspan></text>
        <g
           id="g4240">
          <path
             transform="translate(0,652.36218)"
             inkscape:connector-curvature="0"
             id="path4220"
             d="m 169,363.75 0,-39.25 22,0 0,39.25"
             style="fill:none;stroke:#000000;stroke-width:1px;stroke-linecap:butt;stroke-linejoin:miter;stroke-opacity:1" />
          <path
             transform="translate(0,652.36218)"
             inkscape:connector-curvature="0"
             id="path4222"
             d="m 191.25,344.5 9.25,0 0,19.25"
             style="fill:none;stroke:#000000;stroke-width:1px;stroke-linecap:butt;stroke-linejoin:miter;stroke-opacity:1" />
          <path
             transform="translate(0,652.36218)"
             inkscape:connector-curvature="0"
             id="path4224"
             d="m 180,324.5 0,-19"
             style="fill:none;stroke:#000000;stroke-width:1px;stroke-linecap:butt;stroke-linejoin:miter;stroke-opacity:1" />
          <path
             transform="translate(0,652.36218)"
             inkscape:connector-curvature="0"
             id="path4226"
             d="m 206,364 0,-49.25 6.31338,-10.9351 6.15669,10.6637 0,49.5214"
             style="fill:none;stroke:#000000;stroke-width:1px;stroke-linecap:butt;stroke-linejoin:miter;stroke-opacity:1" />
          <path
             transform="translate(0,652.36218)"
             inkscape:connector-curvature="0"
             id="path4228"
             d="m 219,331.25 19,0 0,32.25"
             style="fill:none;stroke:#000000;stroke-width:1px;stroke-linecap:butt;stroke-linejoin:miter;stroke-opacity:1" />
          <path
             inkscape:connector-curvature="0"
             id="path4230"
             d="m 228,983.36218 0,-8 21,0 0,40.75002"
             style="fill:none;stroke:#000000;stroke-width:1px;stroke-linecap:butt;stroke-linejoin:miter;stroke-opacity:1" />
          <path
             transform="translate(0,652.36218)"
             inkscape:connector-curvature="0"
             id="path4232"
             d="m 253,363.75 0,-11 4.01018,-14.96618 3.82131,14.26133 0,6.20485 14.66851,0 3.375,3.375 0,2.375"
             style="fill:none;stroke:#000000;stroke-width:1px;stroke-linecap:butt;stroke-linejoin:miter;stroke-opacity:1" />
          <path
             transform="translate(0,652.36218)"
             inkscape:connector-curvature="0"
             id="path4234"
             d="m 256.75,337.25 0,-7"
             style="fill:none;stroke:#000000;stroke-width:1px;stroke-linecap:butt;stroke-linejoin:miter;stroke-opacity:1" />
          <path
             inkscape:connector-curvature="0"
             id="path4236"
             d="m 254.5,985.36218 4.36111,0"
             style="fill:none;stroke:#000000;stroke-width:0.8708927px;stroke-linecap:butt;stroke-linejoin:miter;stroke-opacity:1" />
          <path
             transform="translate(0,652.36218)"
             inkscape:connector-curvature="0"
             id="path4238"
             d="m 268.5,358 0,-21.25 21.75,0 0,28.25"
             style="fill:none;stroke:#000000;stroke-width:1px;stroke-linecap:butt;stroke-linejoin:miter;stroke-opacity:1" />
        </g>
      </g>
    </g>
    <text
       xml:space="preserve"
       style="font-size:18px;font-style:normal;font-variant:normal;font-weight:normal;font-stretch:normal;text-align:start;line-height:89.99999762%;letter-spacing:0px;word-spacing:0px;writing-mode:lr-tb;text-anchor:start;fill:#000000;fill-opacity:1;stroke:none;font-family:Liberation Sans;-inkscape-font-specification:Liberation Sans"
       x="489.22842"
       y="801.23859"
       id="text4414"
       sodipodi:linespacing="89.999998%"><tspan
         sodipodi:role="line"
         id="tspan4416"
         x="489.22842"
         y="801.23859">Heildir sem</tspan><tspan
         sodipodi:role="line"
         x="489.22842"
         y="817.4386"
         id="tspan4418">maðurinn</tspan><tspan
         sodipodi:role="line"
         x="489.22842"
         y="833.63861"
         id="tspan4420">myndar</tspan></text>
    <g
       id="g4436"
       transform="translate(2,6)"
       style="stroke-width:2;stroke-miterlimit:4;stroke-dasharray:none">
      <path
         sodipodi:nodetypes="cc"
         inkscape:connector-curvature="0"
         id="path4426"
         d="m 337.07097,863.93315 c -4.82898,-9.77358 -13.03973,-12.09028 -9.80618,-39.64194"
         style="fill:none;stroke:#000000;stroke-width:2;stroke-linecap:butt;stroke-linejoin:miter;stroke-opacity:1;stroke-miterlimit:4;stroke-dasharray:none" />
      <path
         sodipodi:nodetypes="cc"
         inkscape:connector-curvature="0"
         id="path4428"
         d="m 320.58862,821.88162 c -4.08718,42.03659 13.76053,47.70747 14.37168,48.44086"
         style="fill:none;stroke:#000000;stroke-width:2;stroke-linecap:butt;stroke-linejoin:miter;stroke-opacity:1;stroke-miterlimit:4;stroke-dasharray:none" />
      <path
         transform="translate(0,652.36218)"
         inkscape:connector-curvature="0"
         id="path4432"
         d="M 313,177.5 C 326,164 326,164 326,164 l 5,21"
         style="fill:none;stroke:#000000;stroke-width:2;stroke-linecap:butt;stroke-linejoin:miter;stroke-opacity:1;stroke-miterlimit:4;stroke-dasharray:none" />
      <path
         inkscape:connector-curvature="0"
         id="path4434"
         d="m 335.18972,850.86698 3.80548,19.28508 -16.4904,1.20532"
         style="fill:none;stroke:#000000;stroke-width:2;stroke-linecap:butt;stroke-linejoin:miter;stroke-opacity:1;stroke-miterlimit:4;stroke-dasharray:none" />
    </g>
    <g
       id="g4450"
       style="stroke-width:2;stroke-miterlimit:4;stroke-dasharray:none"
       transform="translate(4,-3.5)">
      <path
         transform="translate(0,652.36218)"
         inkscape:connector-curvature="0"
         id="path4442"
         d="M 482.5,83 524,117.5"
         style="fill:none;stroke:#000000;stroke-width:2;stroke-linecap:butt;stroke-linejoin:miter;stroke-miterlimit:4;stroke-opacity:1;stroke-dasharray:none" />
      <path
         transform="translate(0,652.36218)"
         inkscape:connector-curvature="0"
         id="path4444"
         d="m 487.5,77.5 41,34"
         style="fill:none;stroke:#000000;stroke-width:2;stroke-linecap:butt;stroke-linejoin:miter;stroke-miterlimit:4;stroke-opacity:1;stroke-dasharray:none" />
      <path
         transform="translate(0,652.36218)"
         inkscape:connector-curvature="0"
         id="path4446"
         d="m 482,94.5 -1,-19 19.5,3"
         style="fill:none;stroke:#000000;stroke-width:2;stroke-linecap:butt;stroke-linejoin:miter;stroke-miterlimit:4;stroke-opacity:1;stroke-dasharray:none" />
      <path
         transform="translate(0,652.36218)"
         inkscape:connector-curvature="0"
         id="path4448"
         d="m 513,119.5 18.5,-1 -7,-18"
         style="fill:none;stroke:#000000;stroke-width:2;stroke-linecap:butt;stroke-linejoin:miter;stroke-miterlimit:4;stroke-opacity:1;stroke-dasharray:none" />
    </g>
    <g
       id="g4522">
      <text
         sodipodi:linespacing="125%"
         id="text4404"
         y="981.53699"
         x="361.52332"
         style="font-size:22px;font-style:normal;font-variant:normal;font-weight:normal;font-stretch:normal;text-align:start;line-height:125%;letter-spacing:0px;word-spacing:0px;writing-mode:lr-tb;text-anchor:start;fill:#000000;fill-opacity:1;stroke:none;font-family:Liberation Sans;-inkscape-font-specification:Liberation Sans"
         xml:space="preserve"><tspan
           y="981.53699"
           x="361.52332"
           id="tspan4406"
           sodipodi:role="line">Maðurinn</tspan></text>
      <g
         id="g4512">
        <g
           id="g4460"
           transform="matrix(0.95855443,0,0,0.85261411,14.873618,116.37028)">
          <path
             sodipodi:open="true"
             sodipodi:end="7.0078225"
             sodipodi:start="2.4556904"
             transform="translate(0,652.36218)"
             d="m 384.73923,274.19215 c -11.80923,-15.19589 -9.68596,-37.59709 4.74246,-50.03447 14.42842,-12.43739 35.69824,-10.20117 47.50747,4.99472 10.49218,13.50113 10.1331,33.02529 -0.84764,46.08836"
             sodipodi:ry="35.555557"
             sodipodi:rx="33.759819"
             sodipodi:cy="251.67227"
             sodipodi:cx="410.8642"
             id="path4456"
             style="fill:#ffffff;fill-opacity:1;stroke:#000000;stroke-width:2;stroke-linejoin:round;stroke-miterlimit:4;stroke-opacity:1;stroke-dasharray:none"
             sodipodi:type="arc" />
          <path
             sodipodi:end="10.462128"
             sodipodi:start="5.2502413"
             transform="translate(0,652.36218)"
             d="m 436.99055,275.98905 c 24.18919,9.14526 32.10123,28.98733 17.67204,44.3185 -14.42919,15.33117 -45.73556,20.34585 -69.92475,11.20059 -24.18918,-9.14526 -32.10122,-28.98733 -17.67204,-44.3185 4.37277,-4.64612 10.51554,-8.5223 17.86527,-11.27328 l 25.93313,27.83224 z"
             sodipodi:ry="32.323231"
             sodipodi:rx="50.998878"
             sodipodi:cy="303.7486"
             sodipodi:cx="410.8642"
             id="path4458"
             style="fill:#ffffff;fill-opacity:1;stroke:#000000;stroke-width:2;stroke-linejoin:round;stroke-miterlimit:4;stroke-opacity:1;stroke-dasharray:none"
             sodipodi:type="arc" />
        </g>
        <path
           style="fill:none;stroke:#000000;stroke-width:1px;stroke-linecap:butt;stroke-linejoin:miter;stroke-opacity:1"
           d="m 416.05838,875.25334 c 11.67227,0 10.23569,11.13356 11.67227,0"
           id="path4470"
           inkscape:connector-curvature="0" />
        <path
           style="fill:none;stroke:#000000;stroke-width:1.04081142px;stroke-linecap:butt;stroke-linejoin:miter;stroke-opacity:1"
           d="m 398.61974,875.80723 c -12.64444,0 -11.08821,11.13356 -12.64444,0"
           id="path4470-0"
           inkscape:connector-curvature="0" />
        <path
           style="fill:none;stroke:#000000;stroke-width:1px;stroke-linecap:butt;stroke-linejoin:miter;stroke-opacity:1"
           d="m 394.88216,895.23536 c 8.14958,7.68259 16.64081,10.80988 26.21773,-0.53872"
           id="path4510"
           inkscape:connector-curvature="0"
           sodipodi:nodetypes="cc" />
      </g>
    </g>
    <g
       id="g4687">
      <rect
         y="692.36218"
         x="321.62"
         height="120"
         width="148.44"
         id="rect3011"
         style="fill:#ffffff;fill-rule:evenodd;stroke:#000000;stroke-width:3;stroke-linecap:butt;stroke-linejoin:round;stroke-opacity:1;fill-opacity:1;stroke-miterlimit:4;stroke-dasharray:none" />
      <g
         id="g4654">
        <text
           xml:space="preserve"
           style="font-size:18px;font-style:normal;font-variant:normal;font-weight:normal;font-stretch:normal;text-align:start;line-height:100%;letter-spacing:0px;word-spacing:0px;writing-mode:lr-tb;text-anchor:start;fill:#000000;fill-opacity:1;stroke:none;font-family:Liberation Sans;-inkscape-font-specification:Liberation Sans"
           x="326.92059"
           y="714.73236"
           id="text4408"
           sodipodi:linespacing="100%"><tspan
             sodipodi:role="line"
             id="tspan4410"
             x="326.92059"
             y="714.73236">Einingar sem</tspan><tspan
             sodipodi:role="line"
             x="326.92059"
             y="732.73236"
             id="tspan4412">mynda</tspan><tspan
             sodipodi:role="line"
             x="326.92059"
             y="750.73236"
             id="tspan4422">manninn</tspan></text>
        <g
           id="g4626">
          <path
             sodipodi:nodetypes="csssc"
             inkscape:connector-curvature="0"
             inkscape:original-d="m 407.5899,751.63133 c 18.63361,28.06381 47.98556,-9.64663 48.46571,-9.64663 0.48018,0 25.26471,-13.27602 2.94915,8.26038 -16.10063,15.53848 -4.83291,43.49768 -31.72633,52.70951 -35.65513,12.21298 -19.68853,-51.32326 -19.68853,-51.32326 z"
             inkscape:path-effect="#path-effect4574"
             id="path4572"
             d="m 407.5899,751.63133 c 0.48349,-5.4985 2.79275,-10.82096 6.47786,-14.93038 3.6851,-4.10941 8.72543,-6.98279 14.13896,-8.0603 5.41352,-1.07751 11.16995,-0.35312 16.14774,2.03203 4.97779,2.38515 9.14907,6.41772 11.70115,11.31202 1.35514,2.59884 2.25731,5.41227 2.94915,8.26038 2.77672,11.43095 2.08765,23.97283 -3.49994,34.32444 -2.79379,5.1758 -6.78008,9.733 -11.66723,13.00562 -4.88714,3.27262 -10.67929,5.23331 -16.55916,5.37945 -5.9746,0.14849 -11.98227,-1.59522 -16.94893,-4.9194 -4.96667,-3.32417 -8.86913,-8.21328 -11.0097,-13.79323 -2.14057,-5.57996 -2.50925,-11.82468 -1.04012,-17.61775 1.46913,-5.79306 4.7692,-11.10739 9.31022,-14.99288"
             style="fill:none;stroke:#000000;stroke-width:2.086;stroke-linecap:butt;stroke-linejoin:miter;stroke-opacity:1;stroke-miterlimit:4;stroke-dasharray:none" />
          <path
             transform="translate(0,652.36218)"
             d="m 435.28619,132.61504 a 9.517396,8.4399548 0 1 1 -19.03479,0 9.517396,8.4399548 0 1 1 19.03479,0 z"
             sodipodi:ry="8.4399548"
             sodipodi:rx="9.517396"
             sodipodi:cy="132.61504"
             sodipodi:cx="425.7688"
             id="path4576"
             style="fill:#ffffff;fill-opacity:1;stroke:#000000;stroke-width:1;stroke-linejoin:round;stroke-miterlimit:4;stroke-opacity:1;stroke-dasharray:none"
             sodipodi:type="arc" />
          <path
             transform="translate(0,652.36218)"
             inkscape:connector-curvature="0"
             id="path4578"
             d="m 397.57576,106.75645 c -0.59139,0.2294 -1.18102,0.17958 -1.79574,0.17958 -0.11971,0 -0.23943,0 -0.35914,0 -0.0599,0 -0.12604,0.0268 -0.17958,0 -0.0757,-0.0379 -0.10386,-0.14172 -0.17957,-0.17958 -0.23943,-0.11971 -0.17957,0.17958 -0.17957,-0.17957"
             style="fill:none;stroke:#000000;stroke-width:1px;stroke-linecap:butt;stroke-linejoin:miter;stroke-opacity:1" />
          <path
             transform="translate(0,652.36218)"
             inkscape:connector-curvature="0"
             id="path4580"
             d="m 399.19192,103.34456 c -0.23943,-0.11972 -0.83801,-0.11972 -0.71829,-0.35915 0.11971,-0.23943 0.98598,0.35915 0.71829,0.35915 -0.32234,0 -0.59207,-0.25722 -0.89787,-0.35915 -0.0568,-0.0189 -0.13725,0.0423 -0.17957,0 -0.0423,-0.0423 0.0268,-0.12604 0,-0.17957 -0.0379,-0.0757 -0.14172,-0.10386 -0.17957,-0.17958 -0.0268,-0.0535 0.0268,-0.12603 0,-0.17957 -0.37368,-0.74734 0.0124,0.19197 -0.35915,-0.17957 -0.0423,-0.0423 0.0268,-0.12604 0,-0.17958 -0.0379,-0.0757 -0.14172,-0.10386 -0.17958,-0.17957 -0.0268,-0.0535 0.0423,-0.13725 0,-0.17958 -0.0423,-0.0423 -0.13724,0.0423 -0.17957,0 -0.0423,-0.0423 -0.0423,-0.13724 0,-0.17957 0.0423,-0.0423 0.17957,-0.0599 0.17957,0 0,0.0599 -0.11971,0 -0.17957,0"
             style="fill:none;stroke:#000000;stroke-width:1px;stroke-linecap:butt;stroke-linejoin:miter;stroke-opacity:1" />
          <path
             transform="translate(0,652.36218)"
             inkscape:connector-curvature="0"
             id="path4582"
             d="m 404.39955,98.136924 c 0,-0.595752 0.10708,-0.647465 -0.17957,-1.077441 -0.047,-0.07043 -0.14172,-0.103858 -0.17958,-0.179573 -0.0268,-0.05354 0.0423,-0.137248 0,-0.179574 -0.063,-0.06303 -0.77383,0.06202 -0.89786,0 -0.0757,-0.03786 -0.10386,-0.141716 -0.17958,-0.179573 -0.0712,-0.0356 -0.50201,0.03671 -0.53872,0 -0.0423,-0.04233 0.0423,-0.137248 0,-0.179574 -0.007,-0.0072 -0.65235,0 -0.71829,0"
             style="fill:none;stroke:#000000;stroke-width:1px;stroke-linecap:butt;stroke-linejoin:miter;stroke-opacity:1" />
          <path
             inkscape:connector-curvature="0"
             id="path4584"
             d="m 407.27273,744.21403 c -0.1729,-0.53538 -0.63018,0.13385 -0.89787,0 -0.21549,-0.10774 -0.32323,-0.43097 -0.53872,-0.53872 -0.0535,-0.0268 -0.11971,0 -0.17957,0 -0.0599,-0.0599 -0.10386,-0.14171 -0.17957,-0.17957 -0.0535,-0.0268 -0.13725,0.0423 -0.17958,0 -0.0423,-0.0423 0.0268,-0.12604 0,-0.17958 -0.37367,-0.74734 0.0124,0.19197 -0.35915,-0.17957 -0.0423,-0.0423 0.0423,-0.13725 0,-0.17957 -0.0423,-0.0423 -0.13724,0.0423 -0.17957,0 -0.008,-0.008 0,-0.8132 0,-0.89787"
             style="fill:none;stroke:#000000;stroke-width:1px;stroke-linecap:butt;stroke-linejoin:miter;stroke-opacity:1" />
          <path
             transform="translate(0,652.36218)"
             inkscape:connector-curvature="0"
             id="path4586"
             d="m 409.78676,85.028058 c -0.23943,0 -0.7183,0.239431 -0.7183,0 0,-0.239431 0.8876,0.169304 0.7183,0 -0.21582,-0.21582 -0.60832,-0.08306 -0.89787,-0.179573 -0.16062,-0.05354 -0.20772,-0.283433 -0.35915,-0.359148 -0.10595,-0.05298 -0.4152,0.04117 -0.53872,0 -0.12698,-0.04233 -0.2293,-0.147111 -0.35915,-0.179573 -0.16032,-0.04008 -0.69,0 -0.89786,0"
             style="fill:none;stroke:#000000;stroke-width:1px;stroke-linecap:butt;stroke-linejoin:miter;stroke-opacity:1" />
          <path
             transform="translate(0,652.36218)"
             inkscape:connector-curvature="0"
             id="path4588"
             d="m 416.61055,78.922559 c -0.23943,-0.119716 -0.83801,-0.119716 -0.71829,-0.359147 0.11971,-0.239432 0.71829,0.626839 0.71829,0.359147 0,-0.383278 -0.50569,-0.578962 -0.71829,-0.897868 -0.0332,-0.04981 0,-0.119716 0,-0.179573 0,-0.05986 0,-0.119716 0,-0.179574 0,-0.359147 0,-0.718294 0,-1.077441"
             style="fill:none;stroke:#000000;stroke-width:1px;stroke-linecap:butt;stroke-linejoin:miter;stroke-opacity:1" />
          <path
             transform="translate(0,652.36218)"
             inkscape:connector-curvature="0"
             id="path4590"
             d="m 425.05051,74.433221 c 0,-0.897868 0,-1.795735 0,-2.693603"
             style="fill:none;stroke:#000000;stroke-width:1px;stroke-linecap:butt;stroke-linejoin:miter;stroke-opacity:1" />
          <path
             transform="translate(0,652.36218)"
             inkscape:connector-curvature="0"
             id="path4592"
             d="m 439.95511,74.612794 c 0,-1.37673 0,-2.75346 0,-4.130191"
             style="fill:none;stroke:#000000;stroke-width:1px;stroke-linecap:butt;stroke-linejoin:miter;stroke-opacity:1" />
          <path
             sodipodi:nodetypes="cscc"
             inkscape:connector-curvature="0"
             id="path4594"
             d="m 449.47251,730.92559 c 1.13729,0 2.27459,0 3.41189,0 0.066,0 -0.54594,0.89087 0.7183,0 0.0946,0.0946 0.65843,0.0599 0.71829,0.17958"
             style="fill:none;stroke:#000000;stroke-width:1px;stroke-linecap:butt;stroke-linejoin:miter;stroke-opacity:1" />
          <path
             transform="translate(0,652.36218)"
             inkscape:connector-curvature="0"
             id="path4596"
             d="m 457.19416,87.721661 c 0.23944,-0.05986 0.47486,-0.139 0.7183,-0.179574 0.11809,-0.01968 0.23943,0 0.35915,0 0.29928,0 0.59857,0 0.89786,0 0.65844,0 1.31688,0 1.97531,0 0.17958,0 0.35915,0 0.53872,0 0.0599,0 0.13725,0.04233 0.17958,0 0.0423,-0.04233 0,-0.119715 0,-0.179573"
             style="fill:none;stroke:#000000;stroke-width:1px;stroke-linecap:butt;stroke-linejoin:miter;stroke-opacity:1" />
          <path
             transform="translate(0,652.36218)"
             inkscape:connector-curvature="0"
             id="path4598"
             d="m 461.32436,99.753086 c 0.42677,0.462534 1.11082,0.560974 1.61616,0.897864 0.0704,0.047 0.10386,0.14172 0.17957,0.17958 0.10708,0.0535 0.2745,-0.0846 0.35915,0 0.0423,0.0423 -0.0423,0.13724 0,0.17957 0.0423,0.0423 0.11971,0 0.17957,0 0.0599,0 0.11972,0 0.17957,0"
             style="fill:none;stroke:#000000;stroke-width:1px;stroke-linecap:butt;stroke-linejoin:miter;stroke-opacity:1" />
          <path
             transform="translate(0,652.36218)"
             inkscape:connector-curvature="0"
             id="path4600"
             d="m 463.47924,115.37598 c 0.52399,-0.39103 0.71996,-0.35915 1.25701,-0.35915 0.11972,0 0.24558,0.0379 0.35915,0 0.0803,-0.0268 0.10386,-0.14171 0.17957,-0.17957 0.0535,-0.0268 0.11972,0 0.17958,0 0.0599,0 0.11971,0 0.17957,0"
             style="fill:none;stroke:#000000;stroke-width:1px;stroke-linecap:butt;stroke-linejoin:miter;stroke-opacity:1" />
          <path
             transform="translate(0,652.36218)"
             inkscape:connector-curvature="0"
             id="path4602"
             d="m 461.6835,124.89338 c 0.29929,0 0.61394,-0.0946 0.89787,0 0.12698,0.0423 0.0849,0.2645 0.17957,0.35914 0.0947,0.0947 0.26451,0.0849 0.35915,0.17958 0.0946,0.0946 0.0849,0.2645 0.17957,0.35915 0.0947,0.0946 0.26451,0.0849 0.35915,0.17957 0.0423,0.0423 -0.0268,0.12603 0,0.17957 0.0379,0.0757 0.14172,0.10386 0.17957,0.17958 0.0268,0.0535 -0.0423,0.13724 0,0.17957 0.0423,0.0423 0.13725,-0.0423 0.17958,0 0.23943,0.23943 -0.29929,0.17957 0.17957,0.17957"
             style="fill:none;stroke:#000000;stroke-width:1px;stroke-linecap:butt;stroke-linejoin:miter;stroke-opacity:1" />
          <path
             transform="translate(0,652.36218)"
             inkscape:connector-curvature="0"
             id="path4604"
             d="m 457.01459,134.76992 c 0.23943,0 0.71829,-0.23943 0.71829,0 0,0.23943 -0.88759,-0.1693 -0.71829,0 0.21582,0.21582 0.60831,0.0831 0.89787,0.17957 0.5605,0.18684 -0.0599,0.11972 0.17957,0.35915 0.0423,0.0423 0.13725,-0.0423 0.17958,0 0.0423,0.0423 -0.0268,0.12604 0,0.17958 0.59557,0.59557 -0.0847,-0.16931 0.17957,0.35914 0.0379,0.0757 0.14172,0.10386 0.17957,0.17958 0.0268,0.0535 -0.0268,0.12603 0,0.17957 0.0379,0.0757 0.14172,0.10386 0.17958,0.17957 0.0268,0.0535 -0.0268,0.12604 0,0.17958 0.0378,0.0757 0.14171,0.10385 0.17957,0.17957 0.0268,0.0535 0,0.11972 0,0.17957 0,0.0599 0,0.11972 0,0.17958"
             style="fill:none;stroke:#000000;stroke-width:1px;stroke-linecap:butt;stroke-linejoin:miter;stroke-opacity:1" />
          <path
             transform="translate(0,652.36218)"
             inkscape:connector-curvature="0"
             id="path4606"
             d="m 450.72952,142.85073 c 1.54566,1.15925 0.42565,0.0199 0.71829,0.89787 0.0535,0.16061 0.28343,0.20771 0.35915,0.35914 0.0535,0.10708 -0.0847,0.2745 0,0.35915 0.0423,0.0423 0.13725,-0.0423 0.17957,0 0.0423,0.0423 0,0.11972 0,0.17957 0,0.0847 -0.008,0.88973 0,0.89787 0.0423,0.0423 0.11972,0 0.17958,0"
             style="fill:none;stroke:#000000;stroke-width:1px;stroke-linecap:butt;stroke-linejoin:miter;stroke-opacity:1" />
          <path
             transform="translate(0,652.36218)"
             inkscape:connector-curvature="0"
             id="path4608"
             d="m 443.00786,150.03367 c 0,1.1373 0,2.2746 0,3.4119"
             style="fill:none;stroke:#000000;stroke-width:1px;stroke-linecap:butt;stroke-linejoin:miter;stroke-opacity:1" />
          <path
             transform="translate(0,652.36218)"
             inkscape:connector-curvature="0"
             id="path4610"
             d="m 432.77217,152.90685 c 0.23943,0 0.71829,-0.23944 0.71829,0 0,0.23943 -0.95772,0 -0.71829,0 0.29929,0 0.60439,-0.0587 0.89786,0 0.0587,0.0117 0,0.11971 0,0.17957 0,0.0599 0,0.11972 0,0.17957 0,0.29929 0,0.59858 0,0.89787 0,0.0599 0,0.11972 0,0.17957 0,0.0599 -0.0268,0.12604 0,0.17958 0.0379,0.0757 0.14172,0.10386 0.17958,0.17957 0.0265,0.053 0,1.07202 0,1.25702"
             style="fill:none;stroke:#000000;stroke-width:1px;stroke-linecap:butt;stroke-linejoin:miter;stroke-opacity:1" />
          <path
             transform="translate(0,652.36218)"
             inkscape:connector-curvature="0"
             id="path4612"
             d="m 424.15264,152.90685 c 0,0.23943 0.23943,0.71829 0,0.71829 -0.23943,0 0,-0.95773 0,-0.71829 0,0.29929 0,0.59857 0,0.89786 0,0.0599 0,0.11972 0,0.17958 0,0.0599 0.0268,0.12603 0,0.17957 -0.0379,0.0757 -0.14172,0.10386 -0.17958,0.17957 -0.0268,0.0535 0.0268,0.12604 0,0.17958 -0.0878,0.17564 -0.27132,0.1835 -0.35914,0.35914 -0.0535,0.10708 0.0847,0.2745 0,0.35915 -0.0423,0.0423 -0.13725,-0.0423 -0.17958,0 -0.0423,0.0423 0.0423,0.13725 0,0.17958 -0.0423,0.0423 -0.11971,0 -0.17957,0 -0.0599,0 -0.11972,0 -0.17957,0"
             style="fill:none;stroke:#000000;stroke-width:1px;stroke-linecap:butt;stroke-linejoin:miter;stroke-opacity:1" />
          <path
             transform="translate(0,652.36218)"
             inkscape:connector-curvature="0"
             id="path4614"
             d="m 413.5578,150.57239 c -0.11972,0.23943 -0.11972,0.83801 -0.35915,0.71829 -0.23943,-0.11971 0.59858,-0.83801 0.35915,-0.71829 -0.34281,0.17141 -0.44728,0.62685 -0.71829,0.89787 -0.0423,0.0423 -0.13725,-0.0423 -0.17958,0 -0.0423,0.0423 0.0423,0.13725 0,0.17957 -0.0846,0.0846 -0.25207,-0.0535 -0.35914,0 -0.21549,0.10775 -0.32324,0.43098 -0.53872,0.53872 -0.0535,0.0268 -0.12604,-0.0268 -0.17958,0 -0.21549,0.10775 -0.32323,0.43098 -0.53872,0.53872 -0.0535,0.0268 -0.13725,-0.0423 -0.17957,0 -0.23943,0.23943 0.29929,0.17958 -0.17958,0.17958"
             style="fill:none;stroke:#000000;stroke-width:1px;stroke-linecap:butt;stroke-linejoin:miter;stroke-opacity:1" />
          <path
             transform="translate(0,652.36218)"
             inkscape:connector-curvature="0"
             id="path4616"
             d="m 407.4523,146.80135 c -0.23943,0.17957 -0.53872,0.77815 -0.71829,0.53872 -0.17958,-0.23943 1.01758,-0.53872 0.71829,-0.53872 -0.34903,0 -0.58569,0.38263 -0.89787,0.53872 -0.10904,0.0545 -0.9684,-0.0545 -1.07744,0 -0.0757,0.0378 -0.0993,0.1528 -0.17957,0.17957 -0.11357,0.0379 -0.23943,0 -0.35915,0 -0.0599,0 -0.17957,0.0599 -0.17957,0 0,-0.0599 0.11971,0 0.17957,0"
             style="fill:none;stroke:#000000;stroke-width:1px;stroke-linecap:butt;stroke-linejoin:miter;stroke-opacity:1" />
          <path
             transform="translate(0,652.36218)"
             inkscape:connector-curvature="0"
             id="path4618"
             d="m 400.26936,138.72054 c -0.95772,0 -1.91545,0 -2.87318,0"
             style="fill:none;stroke:#000000;stroke-width:1px;stroke-linecap:butt;stroke-linejoin:miter;stroke-opacity:1" />
          <path
             transform="translate(0,652.36218)"
             inkscape:connector-curvature="0"
             id="path4620"
             d="m 396.13917,129.20314 c -0.77815,0 -1.5563,0 -2.33446,0 -0.0435,0 -0.53294,-0.006 -0.53872,0 -0.0423,0.0423 0.0423,0.13725 0,0.17958 -0.0423,0.0423 -0.13724,-0.0423 -0.17957,0 -0.0423,0.0423 0,0.11971 0,0.17957 0,0.29929 -0.0599,0.17957 0.35915,0.17957"
             style="fill:none;stroke:#000000;stroke-width:1px;stroke-linecap:butt;stroke-linejoin:miter;stroke-opacity:1" />
          <path
             transform="translate(0,652.36218)"
             inkscape:connector-curvature="0"
             id="path4622"
             d="m 395.06173,121.48148 c -0.65844,0 -1.31687,0 -1.97531,0 -0.0809,0 -0.48407,-0.0273 -0.53872,0 -0.0757,0.0379 -0.10386,0.14172 -0.17957,0.17957 -0.0535,0.0268 -0.11972,0 -0.17958,0 -0.0599,0 -0.11971,0 -0.17957,0"
             style="fill:none;stroke:#000000;stroke-width:1px;stroke-linecap:butt;stroke-linejoin:miter;stroke-opacity:1" />
          <path
             transform="translate(0,652.36218)"
             inkscape:connector-curvature="0"
             id="path4624"
             d="m 395.78002,113.58025 c -0.23943,-0.0599 -0.48914,-0.0879 -0.71829,-0.17958 -0.0786,-0.0314 -0.10386,-0.14171 -0.17957,-0.17957 -0.0649,-0.0325 -0.77297,0 -0.89787,0 -0.11972,0 -0.23943,0 -0.35915,0 -0.0599,0 -0.17957,0.0599 -0.17957,0 0,-0.0599 0.11971,0 0.17957,0"
             style="fill:none;stroke:#000000;stroke-width:1px;stroke-linecap:butt;stroke-linejoin:miter;stroke-opacity:1" />
          <path
             style="fill:none;stroke:#000000;stroke-width:1px;stroke-linecap:butt;stroke-linejoin:miter;stroke-opacity:1"
             d="m 623.12009,238.20426 0,-68.23793 -6.50286,-11.26329 -6.68416,11.57731 0,20.69608 0,47.58698"
             id="path4745"
             inkscape:path-effect="#path-effect4747"
             inkscape:original-d="m 623.12009,238.20426 0,-68.23793 -6.50286,-11.26329 -6.68416,11.57731 0,20.69608 0,47.58698"
             inkscape:connector-curvature="0"
             transform="translate(0,652.36218)" />
          <path
             style="fill:none;stroke:#000000;stroke-width:1px;stroke-linecap:butt;stroke-linejoin:miter;stroke-opacity:1"
             d="m 609.83165,179.84287 -19.03479,0 0,57.6431"
             id="path4749"
             inkscape:path-effect="#path-effect4751"
             inkscape:original-d="m 609.83165,179.84287 -19.03479,0 0,57.6431"
             inkscape:connector-curvature="0"
             transform="translate(0,652.36218)" />
          <path
             style="fill:none;stroke:#000000;stroke-width:1px;stroke-linecap:butt;stroke-linejoin:miter;stroke-opacity:1"
             d="m 600.31425,179.84287 0,-16.87991"
             id="path4753"
             inkscape:path-effect="#path-effect4755"
             inkscape:original-d="m 600.31425,179.84287 0,-16.87991"
             inkscape:connector-curvature="0"
             transform="translate(0,652.36218)" />
          <path
             style="fill:none;stroke:#000000;stroke-width:1px;stroke-linecap:butt;stroke-linejoin:miter;stroke-opacity:1"
             d="m 576.79012,237.12682 0,-17.41863 -17.95735,0 0,17.41863"
             id="path4757"
             inkscape:path-effect="#path-effect4759"
             inkscape:original-d="m 576.79012,237.12682 0,-17.41863 -17.95735,0 0,17.41863"
             inkscape:connector-curvature="0"
             transform="translate(0,652.36218)" />
          <path
             style="fill:none;stroke:#000000;stroke-width:1px;stroke-linecap:butt;stroke-linejoin:miter;stroke-opacity:1"
             d="m 565.65657,219.16947 0,-14.72503 -13.88857,-3.72143 0,36.04467"
             id="path4761"
             inkscape:path-effect="#path-effect4763"
             inkscape:original-d="m 565.65657,219.16947 0,-14.72503 -13.88857,-3.72143 0,36.04467"
             inkscape:connector-curvature="0"
             transform="translate(0,652.36218)" />
          <path
             style="fill:none;stroke:#000000;stroke-width:1px;stroke-linecap:butt;stroke-linejoin:miter;stroke-opacity:1"
             d="m 539.25926,236.5881 0,-11.31313 -3.0809,-11.49805 -3.31362,12.36659 0,10.80374"
             id="path4765"
             inkscape:path-effect="#path-effect4767"
             inkscape:original-d="m 539.25926,236.5881 0,-11.31313 -3.0809,-11.49805 -3.31362,12.36659 0,10.80374"
             inkscape:connector-curvature="0"
             transform="translate(0,652.36218)" />
          <path
             style="fill:none;stroke:#000000;stroke-width:1px;stroke-linecap:butt;stroke-linejoin:miter;stroke-opacity:1"
             d="m 536.38608,212.8844 0,-6.46465 0,2.51403 -1.43658,0 2.6936,0"
             id="path4769"
             inkscape:path-effect="#path-effect4771"
             inkscape:original-d="m 536.38608,212.8844 0,-6.46465 0,2.51403 -1.43658,0 2.6936,0"
             inkscape:connector-curvature="0"
             transform="translate(0,652.36218)" />
          <path
             style="fill:none;stroke:#000000;stroke-width:1px;stroke-linecap:butt;stroke-linejoin:miter;stroke-opacity:1"
             d="m 539.07969,227.42985 12.57014,0"
             id="path4773"
             inkscape:path-effect="#path-effect4775"
             inkscape:original-d="m 539.07969,227.42985 12.57014,0"
             inkscape:connector-curvature="0"
             transform="translate(0,652.36218)" />
          <path
             style="fill:none;stroke:#000000;stroke-width:1px;stroke-linecap:butt;stroke-linejoin:miter;stroke-opacity:1"
             d="m 545.72391,226.89113 0,-6.64422"
             id="path4777"
             inkscape:path-effect="#path-effect4779"
             inkscape:original-d="m 545.72391,226.89113 0,-6.64422"
             inkscape:connector-curvature="0"
             transform="translate(0,652.36218)" />
          <path
             style="fill:none;stroke:#000000;stroke-width:1px;stroke-linecap:butt;stroke-linejoin:miter;stroke-opacity:1"
             d="m 524.53423,236.5881 0,-38.24916 -15.80247,0 0,15.80247"
             id="path4781"
             inkscape:path-effect="#path-effect4783"
             inkscape:original-d="m 524.53423,236.5881 0,-38.24916 -15.80247,0 0,15.80247"
             inkscape:connector-curvature="0"
             transform="translate(0,652.36218)" />
          <path
             style="fill:none;stroke:#000000;stroke-width:1px;stroke-linecap:butt;stroke-linejoin:miter;stroke-opacity:1"
             d="m 517.35129,237.3064 0,-23.34456 -19.21436,0 0,22.80584"
             id="path4785"
             inkscape:path-effect="#path-effect4787"
             inkscape:original-d="m 517.35129,237.3064 0,-23.34456 -19.21436,0 0,22.80584"
             inkscape:connector-curvature="0"
             transform="translate(0,652.36218)" />
        </g>
      </g>
    </g>
  </g>
</svg>
